<?xml version="1.0" encoding="UTF-8" standalone="no"?>
<!-- Created with Inkscape (http://www.inkscape.org/) -->

<svg
   version="1.1"
   id="svg1"
   width="755.90668"
   height="755.90668"
   viewBox="0 0 755.90668 755.90668"
   sodipodi:docname="Muster Hintergrund x1_gelb hell.eps"
   xmlns:inkscape="http://www.inkscape.org/namespaces/inkscape"
   xmlns:sodipodi="http://sodipodi.sourceforge.net/DTD/sodipodi-0.dtd"
   xmlns="http://www.w3.org/2000/svg"
   xmlns:svg="http://www.w3.org/2000/svg">
  <defs
     id="defs1" />
  <sodipodi:namedview
     id="namedview1"
     pagecolor="#ffffff"
     bordercolor="#000000"
     borderopacity="0.25"
     inkscape:showpageshadow="2"
     inkscape:pageopacity="0.0"
     inkscape:pagecheckerboard="0"
     inkscape:deskcolor="#d1d1d1">
    <inkscape:page
       x="0"
       y="0"
       inkscape:label="1"
       id="page1"
       width="755.90668"
       height="755.90668"
       margin="0"
       bleed="0" />
  </sodipodi:namedview>
  <g
     id="g1"
     inkscape:groupmode="layer"
     inkscape:label="1">
    <g
       id="group-R5">
      <path
         id="path2"
         d="m 3089.77,1814.18 h 56.6992 v 992.121 H 3089.77 Z"
         style="fill:#faf9ad;fill-opacity:1;fill-rule:evenodd;stroke:none"
         transform="matrix(0.13333333,0,0,-0.13333333,0,755.90667)" />
      <path
         id="path3"
         d="m 2381.11,2579.53 h 680.32 v 56.6992 h -680.32 z"
         style="fill:#faf9ad;fill-opacity:1;fill-rule:evenodd;stroke:none"
         transform="matrix(0.13333333,0,0,-0.13333333,0,755.90667)" />
      <path
         id="path4"
         d="m 3174.81,2579.53 h 538.59 v 56.6992 h -538.59 z"
         style="fill:#faf9ad;fill-opacity:1;fill-rule:evenodd;stroke:none"
         transform="matrix(0.13333333,0,0,-0.13333333,0,755.90667)" />
      <path
         id="path5"
         d="m 3656.71,2636.23 h 56.6875 V 2806.3 H 3656.71 Z"
         style="fill:#faf9ad;fill-opacity:1;fill-rule:evenodd;stroke:none"
         transform="matrix(0.13333333,0,0,-0.13333333,0,755.90667)" />
      <path
         id="path6"
         d="m 3118.12,2834.65 -37.84,4.25 -35.97,12.59 -32.23,20.27 -26.93,26.93 -20.27,32.23 -12.59,35.94 -4.25,37.87 h 56.7 l 3.85,-29.37 11.34,-27.32 18,-23.5 23.5,-18.03 27.32,-11.31 29.37,-3.86 29.34,3.86 27.35,11.31 23.48,18.03 18.02,23.5 11.31,27.32 3.89,29.37 h 56.69 l -4.28,-37.87 -12.56,-35.94 -20.27,-32.23 -26.92,-26.93 -32.26,-20.27 -35.95,-12.59 -37.84,-4.25"
         style="fill:#faf9ad;fill-opacity:1;fill-rule:evenodd;stroke:none"
         transform="matrix(0.13333333,0,0,-0.13333333,0,755.90667)" />
      <path
         id="path7"
         d="m 3826.78,2834.65 h -283.46 l -31.55,3.54 -29.96,10.49 -26.88,16.87 -22.42,22.45 -16.89,26.87 -10.49,29.96 -3.54,31.55 v 283.47 l 3.54,31.52 10.49,29.96 16.89,26.88 22.42,22.45 26.88,16.86 29.96,10.49 31.55,3.57 h 283.46 l 31.53,-3.57 29.96,-10.49 26.87,-16.86 22.45,-22.45 16.89,-26.88 10.46,-29.96 3.58,-31.52 v -283.47 l -3.58,-31.55 -10.46,-29.96 -16.89,-26.87 -22.45,-22.45 -26.87,-16.87 -29.96,-10.49 -31.53,-3.54"
         style="fill:#faf9ad;fill-opacity:1;fill-rule:evenodd;stroke:none"
         transform="matrix(0.13333333,0,0,-0.13333333,0,755.90667)" />
      <path
         id="path8"
         d="m 2794.57,2267.72 266.86,266.86 v -80.2 l -640.24,-640.2 20.05,-20.07 336.72,336.73 56.7,56.69 v -486.74 h -425.21 l -31.54,3.54 -29.95,10.49 -26.88,16.87 -22.44,22.45 -16.88,26.87 -10.49,29.96 -3.55,31.55 v 425.2 h 526.85"
         style="fill:#faf9ad;fill-opacity:1;fill-rule:evenodd;stroke:none"
         transform="matrix(0.13333333,0,0,-0.13333333,0,755.90667)" />
      <path
         id="path9"
         d="m 3288.2,3004.73 h -56.69 l -3.89,29.34 -11.31,27.35 -18.02,23.47 -23.48,18.03 -27.35,11.31 -29.34,3.89 -29.37,-3.89 -27.32,-11.31 -23.5,-18.03 -18,-23.47 -11.34,-27.35 -3.85,-29.34 h -56.7 l 4.25,37.84 12.59,35.95 20.27,32.23 26.93,26.95 32.23,20.24 35.97,12.59 37.84,4.28 37.84,-4.28 35.95,-12.59 32.26,-20.24 26.92,-26.95 20.27,-32.23 12.56,-35.95 4.28,-37.84"
         style="fill:#faf9ad;fill-opacity:1;fill-rule:evenodd;stroke:none"
         transform="matrix(0.13333333,0,0,-0.13333333,0,755.90667)" />
      <path
         id="path10"
         d="m 2267.72,3259.85 3.55,31.52 10.49,29.96 16.88,26.88 22.44,22.45 26.88,16.86 29.95,10.49 31.54,3.57 h 425.21 v -566.93 h -566.94 v 425.2"
         style="fill:#faf9ad;fill-opacity:1;fill-rule:evenodd;stroke:none"
         transform="matrix(0.13333333,0,0,-0.13333333,0,755.90667)" />
      <path
         id="path11"
         d="m 3968.52,1842.52 -3.58,-31.55 -10.46,-29.96 -16.89,-26.87 -22.45,-22.45 -26.87,-16.87 -29.96,-10.49 -31.53,-3.54 h -425.19 v 566.93 h 566.93 v -425.2"
         style="fill:#faf9ad;fill-opacity:1;fill-rule:evenodd;stroke:none"
         transform="matrix(0.13333333,0,0,-0.13333333,0,755.90667)" />
      <path
         id="path12"
         d="m 4790.56,2381.11 h 56.7031 v 992.129 H 4790.56 Z"
         style="fill:#faf9ad;fill-opacity:1;fill-rule:evenodd;stroke:none"
         transform="matrix(0.13333333,0,0,-0.13333333,0,755.90667)" />
      <path
         id="path13"
         d="m 4081.9,3146.46 h 680.32 v 56.6992 H 4081.9 Z"
         style="fill:#faf9ad;fill-opacity:1;fill-rule:evenodd;stroke:none"
         transform="matrix(0.13333333,0,0,-0.13333333,0,755.90667)" />
      <path
         id="path14"
         d="m 4875.6,3146.46 h 538.59 v 56.6992 H 4875.6 Z"
         style="fill:#faf9ad;fill-opacity:1;fill-rule:evenodd;stroke:none"
         transform="matrix(0.13333333,0,0,-0.13333333,0,755.90667)" />
      <path
         id="path15"
         d="m 5357.5,3203.16 h 56.6914 v 170.078 H 5357.5 Z"
         style="fill:#faf9ad;fill-opacity:1;fill-rule:evenodd;stroke:none"
         transform="matrix(0.13333333,0,0,-0.13333333,0,755.90667)" />
      <path
         id="path16"
         d="m 4818.91,3401.58 -37.84,4.25 -35.97,12.59 -32.23,20.27 -26.93,26.93 -20.27,32.23 -12.59,35.94 -4.25,37.87 h 56.7 l 3.85,-29.37 11.34,-27.32 18,-23.5 23.5,-18.03 27.32,-11.31 29.37,-3.86 29.34,3.86 27.35,11.31 23.48,18.03 18.02,23.5 11.31,27.32 3.89,29.37 h 56.69 l -4.28,-37.87 -12.56,-35.94 -20.27,-32.23 -26.92,-26.93 -32.26,-20.27 -35.95,-12.59 -37.84,-4.25"
         style="fill:#faf9ad;fill-opacity:1;fill-rule:evenodd;stroke:none"
         transform="matrix(0.13333333,0,0,-0.13333333,0,755.90667)" />
      <path
         id="path17"
         d="m 5527.57,3401.58 h -283.46 l -31.55,3.54 -29.96,10.49 -26.88,16.87 -22.42,22.45 -16.89,26.87 -10.49,29.96 -3.54,31.55 v 283.47 l 3.54,31.52 10.49,29.96 16.89,26.87 22.42,22.46 26.88,16.86 29.96,10.49 31.55,3.57 h 283.46 l 31.53,-3.57 29.96,-10.49 26.87,-16.86 22.45,-22.46 16.89,-26.87 10.46,-29.96 3.58,-31.52 v -283.47 l -3.58,-31.55 -10.46,-29.96 -16.89,-26.87 -22.45,-22.45 -26.87,-16.87 -29.96,-10.49 -31.53,-3.54"
         style="fill:#faf9ad;fill-opacity:1;fill-rule:evenodd;stroke:none"
         transform="matrix(0.13333333,0,0,-0.13333333,0,755.90667)" />
      <path
         id="path18"
         d="m 4495.36,2834.65 266.86,266.86 v -80.2 l -640.24,-640.2 20.05,-20.07 336.72,336.73 56.7,56.69 v -486.74 h -425.2 l -31.55,3.54 -29.96,10.49 -26.88,16.87 -22.42,22.45 -16.89,26.87 -10.49,29.96 -3.54,31.55 v 425.2 h 526.84"
         style="fill:#faf9ad;fill-opacity:1;fill-rule:evenodd;stroke:none"
         transform="matrix(0.13333333,0,0,-0.13333333,0,755.90667)" />
      <path
         id="path19"
         d="m 4988.99,3571.66 h -56.69 l -3.89,29.34 -11.31,27.35 -18.02,23.47 -23.48,18.03 -27.35,11.31 -29.34,3.89 -29.37,-3.89 -27.32,-11.31 -23.5,-18.03 -18,-23.47 -11.34,-27.35 -3.85,-29.34 h -56.7 l 4.25,37.84 12.59,35.95 20.27,32.23 26.93,26.95 32.23,20.24 35.97,12.59 37.84,4.28 37.84,-4.28 35.95,-12.59 32.26,-20.24 26.92,-26.95 20.27,-32.23 12.56,-35.95 4.28,-37.84"
         style="fill:#faf9ad;fill-opacity:1;fill-rule:evenodd;stroke:none"
         transform="matrix(0.13333333,0,0,-0.13333333,0,755.90667)" />
      <path
         id="path20"
         d="m 3968.52,3826.78 3.54,31.52 10.49,29.96 16.89,26.87 22.42,22.46 26.88,16.86 29.96,10.49 31.55,3.57 h 425.2 v -566.93 h -566.93 v 425.2"
         style="fill:#faf9ad;fill-opacity:1;fill-rule:evenodd;stroke:none"
         transform="matrix(0.13333333,0,0,-0.13333333,0,755.90667)" />
      <path
         id="path21"
         d="m 5669.31,2409.45 -3.58,-31.55 -10.46,-29.96 -16.89,-26.87 -22.45,-22.45 -26.87,-16.87 -29.96,-10.49 -31.53,-3.54 h -425.19 v 566.93 h 566.93 v -425.2"
         style="fill:#faf9ad;fill-opacity:1;fill-rule:evenodd;stroke:none"
         transform="matrix(0.13333333,0,0,-0.13333333,0,755.90667)" />
      <path
         id="path22"
         d="m 5357.5,680.32 h 56.6914 v 992.121 H 5357.5 Z"
         style="fill:#faf9ad;fill-opacity:1;fill-rule:evenodd;stroke:none"
         transform="matrix(0.13333333,0,0,-0.13333333,0,755.90667)" />
      <path
         id="path23"
         d="m 4648.83,1445.67 h 680.316 v 56.6992 H 4648.83 Z"
         style="fill:#faf9ad;fill-opacity:1;fill-rule:evenodd;stroke:none"
         transform="matrix(0.13333333,0,0,-0.13333333,0,755.90667)" />
      <path
         id="path24"
         d="m 5442.53,1445.67 h 226.781 v 56.6992 H 5442.53 Z"
         style="fill:#faf9ad;fill-opacity:1;fill-rule:evenodd;stroke:none"
         transform="matrix(0.13333333,0,0,-0.13333333,0,755.90667)" />
      <path
         id="path25"
         d="m 5385.84,1700.79 -37.84,4.25 -35.97,12.59 -32.23,20.27 -26.93,26.93 -20.27,32.23 -12.59,35.94 -4.25,37.87 h 56.7 l 3.85,-29.37 11.34,-27.32 18,-23.5 23.5,-18.03 27.32,-11.31 29.37,-3.86 29.34,3.86 27.35,11.31 23.48,18.03 18.02,23.5 11.31,27.32 3.89,29.37 h 56.69 l -4.28,-37.87 -12.56,-35.94 -20.27,-32.23 -26.92,-26.93 -32.26,-20.27 -35.95,-12.59 -37.84,-4.25"
         style="fill:#faf9ad;fill-opacity:1;fill-rule:evenodd;stroke:none"
         transform="matrix(0.13333333,0,0,-0.13333333,0,755.90667)" />
      <path
         id="path26"
         d="m 5062.29,1133.86 266.86,266.86 v -80.2 l -640.24,-640.2 20.05,-20.07 336.72,336.73 56.7,56.69 V 566.93 h -425.2 l -31.55,3.539 -29.96,10.492 -26.88,16.871 -22.42,22.449 -16.89,26.871 -10.49,29.957 -3.54,31.551 v 425.2 h 526.84"
         style="fill:#faf9ad;fill-opacity:1;fill-rule:evenodd;stroke:none"
         transform="matrix(0.13333333,0,0,-0.13333333,0,755.90667)" />
      <path
         id="path27"
         d="m 5555.92,1870.87 h -56.69 l -3.89,29.34 -11.31,27.35 -18.02,23.47 -23.48,18.03 -27.35,11.31 -29.34,3.89 -29.37,-3.89 -27.32,-11.31 -23.5,-18.03 -18,-23.47 -11.34,-27.35 -3.85,-29.34 h -56.7 l 4.25,37.84 12.59,35.95 20.27,32.23 26.93,26.95 32.23,20.24 35.97,12.59 37.84,4.28 37.84,-4.28 35.95,-12.59 32.26,-20.24 26.92,-26.95 20.27,-32.23 12.56,-35.95 4.28,-37.84"
         style="fill:#faf9ad;fill-opacity:1;fill-rule:evenodd;stroke:none"
         transform="matrix(0.13333333,0,0,-0.13333333,0,755.90667)" />
      <path
         id="path28"
         d="m 4535.45,2125.99 3.54,31.52 10.49,29.96 16.89,26.87 22.42,22.46 26.88,16.86 29.96,10.49 31.55,3.57 h 425.2 v -566.93 h -566.93 v 425.2"
         style="fill:#faf9ad;fill-opacity:1;fill-rule:evenodd;stroke:none"
         transform="matrix(0.13333333,0,0,-0.13333333,0,755.90667)" />
      <path
         id="path29"
         d="m 3656.71,113.391 h 56.6875 v 992.121 H 3656.71 Z"
         style="fill:#faf9ad;fill-opacity:1;fill-rule:evenodd;stroke:none"
         transform="matrix(0.13333333,0,0,-0.13333333,0,755.90667)" />
      <path
         id="path30"
         d="m 2948.04,878.742 h 680.32 v 56.6992 h -680.32 z"
         style="fill:#faf9ad;fill-opacity:1;fill-rule:evenodd;stroke:none"
         transform="matrix(0.13333333,0,0,-0.13333333,0,755.90667)" />
      <path
         id="path31"
         d="m 3741.74,878.742 h 538.59 v 56.6992 h -538.59 z"
         style="fill:#faf9ad;fill-opacity:1;fill-rule:evenodd;stroke:none"
         transform="matrix(0.13333333,0,0,-0.13333333,0,755.90667)" />
      <path
         id="path32"
         d="m 4223.63,935.441 h 56.7031 v 170.07 H 4223.63 Z"
         style="fill:#faf9ad;fill-opacity:1;fill-rule:evenodd;stroke:none"
         transform="matrix(0.13333333,0,0,-0.13333333,0,755.90667)" />
      <path
         id="path33"
         d="m 3685.05,1133.86 -37.84,4.25 -35.97,12.59 -32.23,20.27 -26.93,26.93 -20.27,32.23 -12.59,35.94 -4.25,37.87 h 56.7 l 3.85,-29.37 11.34,-27.32 18,-23.5 23.5,-18.03 27.32,-11.31 29.37,-3.86 29.34,3.86 27.35,11.31 23.48,18.03 18.02,23.5 11.31,27.32 3.89,29.37 h 56.69 l -4.28,-37.87 -12.56,-35.94 -20.27,-32.23 -26.92,-26.93 -32.26,-20.27 -35.95,-12.59 -37.84,-4.25"
         style="fill:#faf9ad;fill-opacity:1;fill-rule:evenodd;stroke:none"
         transform="matrix(0.13333333,0,0,-0.13333333,0,755.90667)" />
      <path
         id="path34"
         d="m 4393.71,1133.86 h -283.46 l -31.55,3.54 -29.96,10.49 -26.88,16.87 -22.42,22.45 -16.89,26.87 -10.49,29.96 -3.54,31.55 v 283.47 l 3.54,31.52 10.49,29.96 16.89,26.87 22.42,22.46 26.88,16.86 29.96,10.49 31.55,3.57 h 283.46 l 31.53,-3.57 29.96,-10.49 26.87,-16.86 22.45,-22.46 16.89,-26.87 10.46,-29.96 3.58,-31.52 v -283.47 l -3.58,-31.55 -10.46,-29.96 -16.89,-26.87 -22.45,-22.45 -26.87,-16.87 -29.96,-10.49 -31.53,-3.54"
         style="fill:#faf9ad;fill-opacity:1;fill-rule:evenodd;stroke:none"
         transform="matrix(0.13333333,0,0,-0.13333333,0,755.90667)" />
      <path
         id="path35"
         d="m 3361.5,566.93 266.86,266.859 V 753.59 l -640.24,-640.199 20.05,-20.0707 336.72,336.7307 56.7,56.691 V 0 h -425.2 l -31.55,3.53906 -29.96,10.49224 -26.88,16.871 -22.42,22.4493 -16.89,26.8672 -10.49,29.9612 -3.54,31.55 v 425.2 h 526.84"
         style="fill:#faf9ad;fill-opacity:1;fill-rule:evenodd;stroke:none"
         transform="matrix(0.13333333,0,0,-0.13333333,0,755.90667)" />
      <path
         id="path36"
         d="m 3855.13,1303.94 h -56.69 l -3.89,29.34 -11.31,27.35 -18.02,23.47 -23.48,18.03 -27.35,11.31 -29.34,3.89 -29.37,-3.89 -27.32,-11.31 -23.5,-18.03 -18,-23.47 -11.34,-27.35 -3.85,-29.34 h -56.7 l 4.25,37.84 12.59,35.95 20.27,32.23 26.93,26.95 32.23,20.24 35.97,12.59 37.84,4.28 37.84,-4.28 35.95,-12.59 32.26,-20.24 26.92,-26.95 20.27,-32.23 12.56,-35.95 4.28,-37.84"
         style="fill:#faf9ad;fill-opacity:1;fill-rule:evenodd;stroke:none"
         transform="matrix(0.13333333,0,0,-0.13333333,0,755.90667)" />
      <path
         id="path37"
         d="m 2834.66,1559.06 3.54,31.52 10.49,29.96 16.89,26.87 22.42,22.46 26.88,16.86 29.96,10.49 31.55,3.57 h 425.2 v -566.93 h -566.93 v 425.2"
         style="fill:#faf9ad;fill-opacity:1;fill-rule:evenodd;stroke:none"
         transform="matrix(0.13333333,0,0,-0.13333333,0,755.90667)" />
      <path
         id="path38"
         d="M 4535.45,141.73 4531.87,110.18 4521.41,80.2188 4504.52,53.3516 4482.07,30.9023 4455.2,14.0313 4425.24,3.53906 4393.71,0 h -425.19 v 566.93 h 566.93 v -425.2"
         style="fill:#faf9ad;fill-opacity:1;fill-rule:evenodd;stroke:none"
         transform="matrix(0.13333333,0,0,-0.13333333,0,755.90667)" />
      <path
         id="path39"
         d="m 1955.91,0 h 56.6914 V 538.59 H 1955.91 Z"
         style="fill:#faf9ad;fill-opacity:1;fill-rule:evenodd;stroke:none"
         transform="matrix(0.13333333,0,0,-0.13333333,0,755.90667)" />
      <path
         id="path40"
         d="m 1247.25,311.809 h 680.309 v 56.7031 H 1247.25 Z"
         style="fill:#faf9ad;fill-opacity:1;fill-rule:evenodd;stroke:none"
         transform="matrix(0.13333333,0,0,-0.13333333,0,755.90667)" />
      <path
         id="path41"
         d="m 2040.95,311.809 h 538.582 v 56.7031 H 2040.95 Z"
         style="fill:#faf9ad;fill-opacity:1;fill-rule:evenodd;stroke:none"
         transform="matrix(0.13333333,0,0,-0.13333333,0,755.90667)" />
      <path
         id="path42"
         d="m 2522.84,368.512 h 56.6914 V 538.59 H 2522.84 Z"
         style="fill:#faf9ad;fill-opacity:1;fill-rule:evenodd;stroke:none"
         transform="matrix(0.13333333,0,0,-0.13333333,0,755.90667)" />
      <path
         id="path43"
         d="m 1984.26,566.93 -37.85,4.25 -35.95,12.59 -32.25,20.269 -26.93,26.93 -20.26,32.23 -12.58,35.942 -4.26,37.871 h 56.69 l 3.86,-29.371 11.33,-27.321 18.02,-23.5 23.48,-18.031 27.35,-11.309 29.35,-3.859 29.34,3.859 27.35,11.309 23.48,18.031 18.02,23.5 11.33,27.321 3.86,29.371 h 56.69 l -4.26,-37.871 -12.58,-35.942 -20.26,-32.23 -26.93,-26.93 -32.25,-20.269 -35.95,-12.59 -37.84,-4.25"
         style="fill:#faf9ad;fill-opacity:1;fill-rule:evenodd;stroke:none"
         transform="matrix(0.13333333,0,0,-0.13333333,0,755.90667)" />
      <path
         id="path44"
         d="m 2692.92,566.93 h -283.47 l -31.54,3.539 -29.95,10.492 -26.88,16.871 -22.44,22.449 -16.88,26.871 -10.49,29.957 -3.55,31.551 v 283.469 l 3.55,31.521 10.49,29.96 16.88,26.88 22.44,22.45 26.88,16.86 29.95,10.49 31.54,3.57 h 283.47 l 31.52,-3.57 29.97,-10.49 26.87,-16.86 22.45,-22.45 16.9,-26.88 10.45,-29.96 3.58,-31.521 V 708.66 l -3.58,-31.551 -10.45,-29.957 -16.9,-26.871 -22.45,-22.449 -26.87,-16.871 -29.97,-10.492 -31.52,-3.539"
         style="fill:#faf9ad;fill-opacity:1;fill-rule:evenodd;stroke:none"
         transform="matrix(0.13333333,0,0,-0.13333333,0,755.90667)" />
      <path
         id="path45"
         d="m 1660.7,0 266.86,266.859 V 186.66 L 1740.88,0 h -80.18"
         style="fill:#faf9ad;fill-opacity:1;fill-rule:evenodd;stroke:none"
         transform="matrix(0.13333333,0,0,-0.13333333,0,755.90667)" />
      <path
         id="path46"
         d="m 2154.33,737.012 h -56.69 l -3.86,29.34 -11.33,27.347 -18.02,23.473 -23.48,18.027 -27.35,11.313 -29.34,3.886 -29.35,-3.886 -27.35,-11.313 -23.48,-18.027 -18.02,-23.473 -11.33,-27.347 -3.86,-29.34 h -56.69 l 4.26,37.84 12.58,35.949 20.26,32.23 26.93,26.949 32.25,20.239 35.95,12.59 37.85,4.281 37.84,-4.281 35.95,-12.59 32.25,-20.239 26.93,-26.949 20.26,-32.23 12.58,-35.949 4.26,-37.84"
         style="fill:#faf9ad;fill-opacity:1;fill-rule:evenodd;stroke:none"
         transform="matrix(0.13333333,0,0,-0.13333333,0,755.90667)" />
      <path
         id="path47"
         d="m 1133.86,992.129 3.55,31.521 10.48,29.96 16.89,26.88 22.44,22.45 26.88,16.86 29.95,10.49 31.54,3.57 h 425.2 V 566.93 h -566.93 v 425.199"
         style="fill:#faf9ad;fill-opacity:1;fill-rule:evenodd;stroke:none"
         transform="matrix(0.13333333,0,0,-0.13333333,0,755.90667)" />
      <path
         id="path48"
         d="m 5102.38,425.199 3.54,31.52 10.49,29.961 16.89,26.879 22.42,22.453 26.88,16.859 29.96,10.488 31.55,3.571 h 425.2 V 0 h -566.93 v 425.199"
         style="fill:#faf9ad;fill-opacity:1;fill-rule:evenodd;stroke:none"
         transform="matrix(0.13333333,0,0,-0.13333333,0,755.90667)" />
      <path
         id="path49"
         d="m 1388.98,1247.25 h 56.6914 v 992.121 H 1388.98 Z"
         style="fill:#faf9ad;fill-opacity:1;fill-rule:evenodd;stroke:none"
         transform="matrix(0.13333333,0,0,-0.13333333,0,755.90667)" />
      <path
         id="path50"
         d="m 1474.02,2012.6 h 680.313 v 56.6992 H 1474.02 Z"
         style="fill:#faf9ad;fill-opacity:1;fill-rule:evenodd;stroke:none"
         transform="matrix(0.13333333,0,0,-0.13333333,0,755.90667)" />
      <path
         id="path51"
         d="m 822.051,2012.6 h 538.578 v 56.6992 H 822.051 Z"
         style="fill:#faf9ad;fill-opacity:1;fill-rule:evenodd;stroke:none"
         transform="matrix(0.13333333,0,0,-0.13333333,0,755.90667)" />
      <path
         id="path52"
         d="m 822.051,2069.3 h 56.6914 v 170.07 H 822.051 Z"
         style="fill:#faf9ad;fill-opacity:1;fill-rule:evenodd;stroke:none"
         transform="matrix(0.13333333,0,0,-0.13333333,0,755.90667)" />
      <path
         id="path53"
         d="m 1417.33,2267.72 -37.85,4.25 -35.95,12.59 -32.25,20.27 -26.93,26.93 -20.26,32.23 -12.58,35.94 -4.26,37.87 h 56.69 l 3.86,-29.37 11.33,-27.32 18.02,-23.5 23.48,-18.03 27.35,-11.31 29.35,-3.86 29.34,3.86 27.35,11.31 23.48,18.03 18.02,23.5 11.33,27.32 3.86,29.37 h 56.69 l -4.26,-37.87 -12.58,-35.94 -20.26,-32.23 -26.93,-26.93 -32.25,-20.27 -35.95,-12.59 -37.84,-4.25"
         style="fill:#faf9ad;fill-opacity:1;fill-rule:evenodd;stroke:none"
         transform="matrix(0.13333333,0,0,-0.13333333,0,755.90667)" />
      <path
         id="path54"
         d="m 708.664,2267.72 -31.539,3.54 -29.957,10.49 -26.875,16.87 -22.441,22.45 -16.887,26.87 -10.485,29.96 -3.55,31.55 v 283.47 l 3.55,31.52 10.485,29.96 16.887,26.88 22.441,22.45 26.875,16.86 29.957,10.49 31.539,3.57 h 283.465 l 31.541,-3.57 29.95,-10.49 26.88,-16.86 22.44,-22.45 16.88,-26.88 10.49,-29.96 3.55,-31.52 v -283.47 l -3.55,-31.55 -10.49,-29.96 -16.88,-26.87 -22.44,-22.45 -26.88,-16.87 -29.95,-10.49 -31.541,-3.54 H 708.664"
         style="fill:#faf9ad;fill-opacity:1;fill-rule:evenodd;stroke:none"
         transform="matrix(0.13333333,0,0,-0.13333333,0,755.90667)" />
      <path
         id="path55"
         d="m 1740.88,1700.79 h 526.84 v -425.2 l -3.55,-31.55 -10.49,-29.96 -16.88,-26.87 -22.44,-22.45 -26.88,-16.87 -29.95,-10.49 -31.54,-3.54 h -425.2 v 486.74 l 56.69,-56.69 336.72,-336.73 20.05,20.07 -640.23,640.2 v 80.2 l 266.86,-266.86"
         style="fill:#faf9ad;fill-opacity:1;fill-rule:evenodd;stroke:none"
         transform="matrix(0.13333333,0,0,-0.13333333,0,755.90667)" />
      <path
         id="path56"
         d="m 1247.25,2437.8 4.26,37.84 12.58,35.95 20.26,32.23 26.93,26.95 32.25,20.24 35.95,12.59 37.85,4.28 37.84,-4.28 35.95,-12.59 32.25,-20.24 26.93,-26.95 20.26,-32.23 12.58,-35.95 4.26,-37.84 h -56.69 l -3.86,29.34 -11.33,27.35 -18.02,23.47 -23.48,18.03 -27.35,11.31 -29.34,3.89 -29.35,-3.89 -27.35,-11.31 -23.48,-18.03 -18.02,-23.47 -11.33,-27.35 -3.86,-29.34 h -56.69"
         style="fill:#faf9ad;fill-opacity:1;fill-rule:evenodd;stroke:none"
         transform="matrix(0.13333333,0,0,-0.13333333,0,755.90667)" />
      <path
         id="path57"
         d="m 2267.72,2692.92 v -425.2 h -566.93 v 566.93 h 425.2 l 31.54,-3.57 29.95,-10.49 26.88,-16.86 22.44,-22.45 16.88,-26.88 10.49,-29.96 3.55,-31.52"
         style="fill:#faf9ad;fill-opacity:1;fill-rule:evenodd;stroke:none"
         transform="matrix(0.13333333,0,0,-0.13333333,0,755.90667)" />
      <path
         id="path58"
         d="m 566.93,1275.59 v 425.2 h 566.93 V 1133.86 H 708.664 l -31.539,3.54 -29.957,10.49 -26.875,16.87 -22.441,22.45 -16.887,26.87 -10.485,29.96 -3.55,31.55"
         style="fill:#faf9ad;fill-opacity:1;fill-rule:evenodd;stroke:none"
         transform="matrix(0.13333333,0,0,-0.13333333,0,755.90667)" />
      <path
         id="path59"
         d="m 0,1445.67 h 311.813 v 56.6992 H 0 Z"
         style="fill:#faf9ad;fill-opacity:1;fill-rule:evenodd;stroke:none"
         transform="matrix(0.13333333,0,0,-0.13333333,0,755.90667)" />
      <path
         id="path60"
         d="m 255.117,1502.37 h 56.6953 v 170.07 H 255.117 Z"
         style="fill:#faf9ad;fill-opacity:1;fill-rule:evenodd;stroke:none"
         transform="matrix(0.13333333,0,0,-0.13333333,0,755.90667)" />
      <path
         id="path61"
         d="M 425.199,1700.79 H 141.734 l -31.539,3.54 -29.9567,10.49 -26.875,16.87 -22.4414,22.45 -16.8867,26.87 L 3.55469,1810.97 0,1842.52 v 283.47 l 3.55469,31.52 10.48051,29.96 16.8867,26.87 22.4414,22.46 26.875,16.86 29.9567,10.49 31.539,3.57 h 283.465 l 31.535,-3.57 29.957,-10.49 26.875,-16.86 22.442,-22.46 16.887,-26.87 10.48,-29.96 3.555,-31.52 v -283.47 l -3.555,-31.55 -10.48,-29.96 -16.887,-26.87 -22.442,-22.45 -26.875,-16.87 -29.957,-10.49 -31.535,-3.54"
         style="fill:#faf9ad;fill-opacity:1;fill-rule:evenodd;stroke:none"
         transform="matrix(0.13333333,0,0,-0.13333333,0,755.90667)" />
      <path
         id="path62"
         d="m 566.93,708.66 -3.555,-31.551 -10.48,-29.957 -16.887,-26.871 -22.442,-22.449 -26.875,-16.871 -29.957,-10.492 -31.535,-3.539 H 0 v 566.93 h 566.93 v -425.2"
         style="fill:#faf9ad;fill-opacity:1;fill-rule:evenodd;stroke:none"
         transform="matrix(0.13333333,0,0,-0.13333333,0,755.90667)" />
      <path
         id="path63"
         d="m 283.465,0 -37.844,4.25 -35.949,12.5898 -32.25,20.2696 -26.93,26.9297 -20.262,32.2304 -12.582,35.9415 -4.261,37.871 h 56.691 l 3.863,-29.371 11.329,-27.32 18.019,-23.5004 23.484,-18.0312 27.344,-11.3086 29.348,-3.8594 29.348,3.8594 27.347,11.3086 23.481,18.0312 18.019,23.5004 11.328,27.32 3.864,29.371 h 56.695 L 449.277,132.211 436.699,96.2695 416.438,64.0391 389.508,37.1094 357.262,16.8398 321.313,4.25 283.465,0"
         style="fill:#faf9ad;fill-opacity:1;fill-rule:evenodd;stroke:none"
         transform="matrix(0.13333333,0,0,-0.13333333,0,755.90667)" />
      <path
         id="path64"
         d="M 992.129,0 H 708.664 l -31.539,3.53906 -29.957,10.49224 -26.875,16.871 -22.441,22.4493 -16.887,26.8672 -10.485,29.9612 -3.55,31.55 v 283.469 l 3.55,31.52 10.485,29.961 16.887,26.879 22.441,22.453 26.875,16.859 29.957,10.488 31.539,3.571 h 283.465 l 31.541,-3.571 29.95,-10.488 26.88,-16.859 22.44,-22.453 16.88,-26.879 10.49,-29.961 3.55,-31.52 V 141.73 L 1130.31,110.18 1119.82,80.2188 1102.94,53.3516 1080.5,30.9023 1053.62,14.0313 1023.67,3.53906 992.129,0"
         style="fill:#faf9ad;fill-opacity:1;fill-rule:evenodd;stroke:none"
         transform="matrix(0.13333333,0,0,-0.13333333,0,755.90667)" />
      <path
         id="path65"
         d="m 453.547,170.082 h -56.695 l -3.864,29.34 -11.328,27.348 -18.019,23.468 -23.481,18.032 -27.347,11.312 -29.348,3.887 -29.348,-3.887 -27.344,-11.312 -23.484,-18.032 -18.019,-23.468 -11.329,-27.348 -3.863,-29.34 h -56.691 l 4.261,37.84 12.582,35.949 20.262,32.231 26.93,26.949 32.25,20.238 35.949,12.59 37.844,4.281 37.848,-4.281 35.949,-12.59 32.246,-20.238 26.93,-26.949 20.261,-32.231 12.578,-35.949 4.27,-37.84"
         style="fill:#faf9ad;fill-opacity:1;fill-rule:evenodd;stroke:none"
         transform="matrix(0.13333333,0,0,-0.13333333,0,755.90667)" />
      <path
         id="path66"
         d="m 822.051,2948.04 h 56.6914 v 992.133 H 822.051 Z"
         style="fill:#faf9ad;fill-opacity:1;fill-rule:evenodd;stroke:none"
         transform="matrix(0.13333333,0,0,-0.13333333,0,755.90667)" />
      <path
         id="path67"
         d="m 113.387,3713.39 h 680.316 v 56.6992 H 113.387 Z"
         style="fill:#faf9ad;fill-opacity:1;fill-rule:evenodd;stroke:none"
         transform="matrix(0.13333333,0,0,-0.13333333,0,755.90667)" />
      <path
         id="path68"
         d="m 907.09,3713.39 h 538.582 v 56.6992 H 907.09 Z"
         style="fill:#faf9ad;fill-opacity:1;fill-rule:evenodd;stroke:none"
         transform="matrix(0.13333333,0,0,-0.13333333,0,755.90667)" />
      <path
         id="path69"
         d="m 1388.98,3770.09 h 56.6914 v 170.082 H 1388.98 Z"
         style="fill:#faf9ad;fill-opacity:1;fill-rule:evenodd;stroke:none"
         transform="matrix(0.13333333,0,0,-0.13333333,0,755.90667)" />
      <path
         id="path70"
         d="m 850.395,3968.51 -37.844,4.25 -35.949,12.59 -32.25,20.27 -26.93,26.93 -20.262,32.23 -12.582,35.94 -4.262,37.87 h 56.696 l 3.863,-29.37 11.324,-27.32 18.02,-23.5 23.484,-18.03 27.344,-11.31 29.348,-3.86 29.347,3.86 27.348,11.31 23.48,18.03 18.02,23.5 11.328,27.32 3.863,29.37 h 56.689 l -4.26,-37.87 -12.58,-35.94 -20.263,-32.23 -26.929,-26.93 -32.247,-20.27 -35.949,-12.59 -37.847,-4.25"
         style="fill:#faf9ad;fill-opacity:1;fill-rule:evenodd;stroke:none"
         transform="matrix(0.13333333,0,0,-0.13333333,0,755.90667)" />
      <path
         id="path71"
         d="m 1559.06,3968.51 h -283.47 l -31.54,3.54 -29.95,10.49 -26.88,16.87 -22.44,22.45 -16.89,26.87 -10.48,29.96 -3.55,31.55 v 283.46 l 3.55,31.54 10.48,29.95 16.89,26.87 22.44,22.45 26.88,16.88 29.95,10.49 31.54,3.55 h 283.47 l 31.54,-3.55 29.95,-10.49 26.88,-16.88 22.44,-22.45 16.88,-26.87 10.49,-29.95 3.55,-31.54 v -283.46 l -3.55,-31.55 -10.49,-29.96 -16.88,-26.87 -22.44,-22.45 -26.88,-16.87 -29.95,-10.49 -31.54,-3.54"
         style="fill:#faf9ad;fill-opacity:1;fill-rule:evenodd;stroke:none"
         transform="matrix(0.13333333,0,0,-0.13333333,0,755.90667)" />
      <path
         id="path72"
         d="m 526.844,3401.58 266.859,266.86 v -80.2 l -640.23,-640.2 20.047,-20.07 336.718,336.73 56.692,56.69 V 2834.65 H 141.734 l -31.539,3.54 -29.9567,10.49 -26.875,16.87 L 30.9219,2888 14.0352,2914.87 3.55469,2944.83 0,2976.38 v 425.2 h 526.844"
         style="fill:#faf9ad;fill-opacity:1;fill-rule:evenodd;stroke:none"
         transform="matrix(0.13333333,0,0,-0.13333333,0,755.90667)" />
      <path
         id="path73"
         d="m 1020.47,4138.59 h -56.689 l -3.863,29.34 -11.328,27.35 -18.02,23.47 -23.48,18.02 -27.348,11.33 -29.347,3.86 -29.348,-3.86 -27.344,-11.33 -23.484,-18.02 -18.02,-23.47 -11.324,-27.35 -3.863,-29.34 h -56.696 l 4.262,37.84 12.582,35.94 20.262,32.25 26.93,26.93 32.25,20.26 35.949,12.58 37.844,4.27 37.847,-4.27 35.949,-12.58 32.247,-20.26 26.929,-26.93 20.263,-32.25 12.58,-35.94 4.26,-37.84"
         style="fill:#faf9ad;fill-opacity:1;fill-rule:evenodd;stroke:none"
         transform="matrix(0.13333333,0,0,-0.13333333,0,755.90667)" />
      <path
         id="path74"
         d="m 0,4393.7 3.55469,31.54 10.48051,29.95 16.8867,26.87 22.4414,22.45 26.875,16.88 29.9567,10.49 31.539,3.55 H 566.93 V 3968.51 H 0 v 425.19"
         style="fill:#faf9ad;fill-opacity:1;fill-rule:evenodd;stroke:none"
         transform="matrix(0.13333333,0,0,-0.13333333,0,755.90667)" />
      <path
         id="path75"
         d="m 1700.79,2976.38 -3.55,-31.55 -10.49,-29.96 -16.88,-26.87 -22.44,-22.45 -26.88,-16.87 -29.95,-10.49 -31.54,-3.54 h -425.2 v 566.93 h 566.93 v -425.2"
         style="fill:#faf9ad;fill-opacity:1;fill-rule:evenodd;stroke:none"
         transform="matrix(0.13333333,0,0,-0.13333333,0,755.90667)" />
      <path
         id="path76"
         d="m 2522.84,3514.97 h 56.6914 v 992.113 H 2522.84 Z"
         style="fill:#faf9ad;fill-opacity:1;fill-rule:evenodd;stroke:none"
         transform="matrix(0.13333333,0,0,-0.13333333,0,755.90667)" />
      <path
         id="path77"
         d="m 1814.18,4280.31 h 680.309 v 56.6914 H 1814.18 Z"
         style="fill:#faf9ad;fill-opacity:1;fill-rule:evenodd;stroke:none"
         transform="matrix(0.13333333,0,0,-0.13333333,0,755.90667)" />
      <path
         id="path78"
         d="m 2607.88,4280.31 h 538.59 v 56.6914 h -538.59 z"
         style="fill:#faf9ad;fill-opacity:1;fill-rule:evenodd;stroke:none"
         transform="matrix(0.13333333,0,0,-0.13333333,0,755.90667)" />
      <path
         id="path79"
         d="m 3089.77,4337 h 56.6992 v 170.082 H 3089.77 Z"
         style="fill:#faf9ad;fill-opacity:1;fill-rule:evenodd;stroke:none"
         transform="matrix(0.13333333,0,0,-0.13333333,0,755.90667)" />
      <path
         id="path80"
         d="m 2551.19,4535.43 -37.85,4.26 -35.95,12.58 -32.25,20.27 -26.93,26.92 -20.26,32.25 -12.58,35.95 -4.26,37.85 h 56.69 l 3.86,-29.35 11.33,-27.34 18.02,-23.49 23.48,-18.02 27.35,-11.32 29.35,-3.87 29.34,3.87 27.35,11.32 23.48,18.02 18.02,23.49 11.33,27.34 3.86,29.35 h 56.7 l -4.28,-37.85 -12.56,-35.95 -20.27,-32.25 -26.93,-26.92 -32.25,-20.27 -35.95,-12.58 -37.84,-4.26"
         style="fill:#faf9ad;fill-opacity:1;fill-rule:evenodd;stroke:none"
         transform="matrix(0.13333333,0,0,-0.13333333,0,755.90667)" />
      <path
         id="path81"
         d="m 3259.85,4535.43 h -283.46 l -31.55,3.55 -29.96,10.48 -26.88,16.89 -22.42,22.44 -16.89,26.87 -10.49,29.96 -3.54,31.54 v 283.47 l 3.54,31.54 10.49,29.96 16.89,26.87 22.42,22.44 26.88,16.88 29.96,10.48 31.55,3.56 h 283.46 l 31.53,-3.56 29.96,-10.48 26.87,-16.88 22.45,-22.44 16.89,-26.87 10.46,-29.96 3.58,-31.54 v -283.47 l -3.58,-31.54 -10.46,-29.96 -16.89,-26.87 -22.45,-22.44 -26.87,-16.89 -29.96,-10.48 -31.53,-3.55"
         style="fill:#faf9ad;fill-opacity:1;fill-rule:evenodd;stroke:none"
         transform="matrix(0.13333333,0,0,-0.13333333,0,755.90667)" />
      <path
         id="path82"
         d="m 2227.63,3968.51 266.86,266.85 v -80.19 l -640.23,-640.2 20.05,-20.07 336.72,336.73 56.69,56.69 v -486.74 h -425.2 l -31.54,3.54 -29.95,10.49 -26.88,16.87 -22.44,22.45 -16.89,26.87 -10.48,29.96 -3.55,31.55 v 425.2 h 526.84"
         style="fill:#faf9ad;fill-opacity:1;fill-rule:evenodd;stroke:none"
         transform="matrix(0.13333333,0,0,-0.13333333,0,755.90667)" />
      <path
         id="path83"
         d="m 2721.27,4705.51 h -56.7 l -3.86,29.34 -11.33,27.35 -18.02,23.48 -23.48,18.02 -27.35,11.33 -29.34,3.86 -29.35,-3.86 -27.35,-11.33 -23.48,-18.02 -18.02,-23.48 -11.33,-27.35 -3.86,-29.34 h -56.69 l 4.26,37.85 12.58,35.94 20.26,32.25 26.93,26.93 32.25,20.27 35.95,12.57 37.85,4.27 37.84,-4.27 35.95,-12.57 32.25,-20.27 26.93,-26.93 20.27,-32.25 12.56,-35.94 4.28,-37.85"
         style="fill:#faf9ad;fill-opacity:1;fill-rule:evenodd;stroke:none"
         transform="matrix(0.13333333,0,0,-0.13333333,0,755.90667)" />
      <path
         id="path84"
         d="m 1700.79,4960.63 3.55,31.54 10.48,29.96 16.89,26.87 22.44,22.44 26.88,16.88 29.95,10.48 31.54,3.56 h 425.2 v -566.93 h -566.93 v 425.2"
         style="fill:#faf9ad;fill-opacity:1;fill-rule:evenodd;stroke:none"
         transform="matrix(0.13333333,0,0,-0.13333333,0,755.90667)" />
      <path
         id="path85"
         d="m 3401.59,3543.31 -3.58,-31.55 -10.46,-29.96 -16.89,-26.87 -22.45,-22.45 -26.87,-16.87 -29.96,-10.49 -31.53,-3.54 h -425.19 v 566.93 h 566.93 v -425.2"
         style="fill:#faf9ad;fill-opacity:1;fill-rule:evenodd;stroke:none"
         transform="matrix(0.13333333,0,0,-0.13333333,0,755.90667)" />
      <path
         id="path86"
         d="m 4223.63,4081.9 h 56.7031 v 992.117 H 4223.63 Z"
         style="fill:#faf9ad;fill-opacity:1;fill-rule:evenodd;stroke:none"
         transform="matrix(0.13333333,0,0,-0.13333333,0,755.90667)" />
      <path
         id="path87"
         d="m 3514.97,4847.24 h 680.32 v 56.6914 h -680.32 z"
         style="fill:#faf9ad;fill-opacity:1;fill-rule:evenodd;stroke:none"
         transform="matrix(0.13333333,0,0,-0.13333333,0,755.90667)" />
      <path
         id="path88"
         d="m 4308.67,4847.24 h 538.59 v 56.6914 h -538.59 z"
         style="fill:#faf9ad;fill-opacity:1;fill-rule:evenodd;stroke:none"
         transform="matrix(0.13333333,0,0,-0.13333333,0,755.90667)" />
      <path
         id="path89"
         d="m 4790.56,4903.93 h 56.7031 v 170.082 H 4790.56 Z"
         style="fill:#faf9ad;fill-opacity:1;fill-rule:evenodd;stroke:none"
         transform="matrix(0.13333333,0,0,-0.13333333,0,755.90667)" />
      <path
         id="path90"
         d="m 4251.98,5102.36 -37.84,4.27 -35.97,12.57 -32.23,20.26 -26.93,26.93 -20.27,32.25 -12.59,35.95 -4.25,37.85 h 56.7 l 3.85,-29.35 11.34,-27.34 18,-23.49 23.5,-18.01 27.32,-11.33 29.37,-3.87 29.34,3.87 27.35,11.33 23.48,18.01 18.02,23.49 11.31,27.34 3.89,29.35 h 56.69 l -4.28,-37.85 -12.56,-35.95 -20.27,-32.25 -26.92,-26.93 -32.26,-20.26 -35.95,-12.57 -37.84,-4.27"
         style="fill:#faf9ad;fill-opacity:1;fill-rule:evenodd;stroke:none"
         transform="matrix(0.13333333,0,0,-0.13333333,0,755.90667)" />
      <path
         id="path91"
         d="m 4960.64,5102.36 h -283.46 l -31.55,3.55 -29.96,10.48 -26.88,16.89 -22.42,22.44 -16.89,26.87 -10.49,29.96 -3.54,31.54 v 283.47 l 3.54,31.54 10.49,29.95 16.89,26.88 22.42,22.44 26.88,16.88 29.96,10.48 31.55,3.56 h 283.46 l 31.53,-3.56 29.96,-10.48 26.87,-16.88 22.45,-22.44 16.89,-26.88 10.46,-29.95 3.58,-31.54 v -283.47 l -3.58,-31.54 -10.46,-29.96 -16.89,-26.87 -22.45,-22.44 -26.87,-16.89 -29.96,-10.48 -31.53,-3.55"
         style="fill:#faf9ad;fill-opacity:1;fill-rule:evenodd;stroke:none"
         transform="matrix(0.13333333,0,0,-0.13333333,0,755.90667)" />
      <path
         id="path92"
         d="m 3928.43,4535.43 266.86,266.86 v -80.18 l -640.24,-640.21 20.04,-20.07 336.73,336.73 56.7,56.69 v -486.74 h -425.2 l -31.55,3.54 -29.96,10.49 -26.88,16.87 -22.42,22.45 -16.89,26.87 -10.49,29.96 -3.54,31.55 v 425.19 h 526.84"
         style="fill:#faf9ad;fill-opacity:1;fill-rule:evenodd;stroke:none"
         transform="matrix(0.13333333,0,0,-0.13333333,0,755.90667)" />
      <path
         id="path93"
         d="m 4422.06,5272.44 h -56.69 l -3.89,29.35 -11.31,27.34 -18.02,23.48 -23.48,18.02 -27.35,11.33 -29.34,3.86 -29.37,-3.86 -27.32,-11.33 -23.5,-18.02 -18,-23.48 -11.34,-27.34 -3.85,-29.35 h -56.7 l 4.25,37.85 12.59,35.94 20.27,32.25 26.93,26.93 32.23,20.27 35.97,12.57 37.84,4.27 37.84,-4.27 35.95,-12.57 32.26,-20.27 26.92,-26.93 20.27,-32.25 12.56,-35.94 4.28,-37.85"
         style="fill:#faf9ad;fill-opacity:1;fill-rule:evenodd;stroke:none"
         transform="matrix(0.13333333,0,0,-0.13333333,0,755.90667)" />
      <path
         id="path94"
         d="m 3401.59,5527.56 3.54,31.54 10.49,29.95 16.89,26.88 22.42,22.44 26.88,16.88 29.96,10.48 31.55,3.56 h 425.2 v -566.93 h -566.93 v 425.2"
         style="fill:#faf9ad;fill-opacity:1;fill-rule:evenodd;stroke:none"
         transform="matrix(0.13333333,0,0,-0.13333333,0,755.90667)" />
      <path
         id="path95"
         d="m 5102.38,4110.24 -3.58,-31.55 -10.46,-29.96 -16.89,-26.87 -22.45,-22.45 -26.87,-16.87 -29.96,-10.49 -31.53,-3.54 h -425.19 v 566.92 h 566.93 v -425.19"
         style="fill:#faf9ad;fill-opacity:1;fill-rule:evenodd;stroke:none"
         transform="matrix(0.13333333,0,0,-0.13333333,0,755.90667)" />
      <path
         id="path96"
         d="m 255.117,4648.82 h 56.6953 v 992.125 H 255.117 Z"
         style="fill:#faf9ad;fill-opacity:1;fill-rule:evenodd;stroke:none"
         transform="matrix(0.13333333,0,0,-0.13333333,0,755.90667)" />
      <path
         id="path97"
         d="m 0,5414.17 h 226.773 v 56.6953 H 0 Z"
         style="fill:#faf9ad;fill-opacity:1;fill-rule:evenodd;stroke:none"
         transform="matrix(0.13333333,0,0,-0.13333333,0,755.90667)" />
      <path
         id="path98"
         d="m 340.16,5414.17 h 538.582 v 56.6953 H 340.16 Z"
         style="fill:#faf9ad;fill-opacity:1;fill-rule:evenodd;stroke:none"
         transform="matrix(0.13333333,0,0,-0.13333333,0,755.90667)" />
      <path
         id="path99"
         d="m 822.051,5470.87 h 56.6914 v 170.078 H 822.051 Z"
         style="fill:#faf9ad;fill-opacity:1;fill-rule:evenodd;stroke:none"
         transform="matrix(0.13333333,0,0,-0.13333333,0,755.90667)" />
      <path
         id="path100"
         d="m 0,5062.27 v 80.18 l 226.773,226.77 v -80.18 L 0,5062.27"
         style="fill:#faf9ad;fill-opacity:1;fill-rule:evenodd;stroke:none"
         transform="matrix(0.13333333,0,0,-0.13333333,0,755.90667)" />
      <path
         id="path101"
         d="m 1133.86,4677.16 -3.55,-31.54 -10.49,-29.96 -16.88,-26.87 -22.44,-22.44 -26.88,-16.89 -29.95,-10.48 -31.541,-3.55 H 566.93 v 566.93 h 566.93 v -425.2"
         style="fill:#faf9ad;fill-opacity:1;fill-rule:evenodd;stroke:none"
         transform="matrix(0.13333333,0,0,-0.13333333,0,755.90667)" />
      <path
         id="path102"
         d="m 1955.91,5215.75 h 56.6914 v 453.543 H 1955.91 Z"
         style="fill:#faf9ad;fill-opacity:1;fill-rule:evenodd;stroke:none"
         transform="matrix(0.13333333,0,0,-0.13333333,0,755.90667)" />
      <path
         id="path103"
         d="m 1660.7,5669.29 h 80.18 l -453.55,-453.54 20.05,-20.05 336.72,336.72 56.69,56.69 v -486.75 h -425.2 l -31.54,3.55 -29.95,10.48 -26.88,16.89 -22.44,22.44 -16.89,26.87 -10.48,29.96 -3.55,31.54 v 425.2 h 526.84"
         style="fill:#faf9ad;fill-opacity:1;fill-rule:evenodd;stroke:none"
         transform="matrix(0.13333333,0,0,-0.13333333,0,755.90667)" />
      <path
         id="path104"
         d="m 2834.66,5244.09 -3.58,-31.54 -10.45,-29.96 -16.9,-26.87 -22.45,-22.44 -26.87,-16.89 -29.97,-10.48 -31.52,-3.55 h -425.2 v 566.93 h 566.94 v -425.2"
         style="fill:#faf9ad;fill-opacity:1;fill-rule:evenodd;stroke:none"
         transform="matrix(0.13333333,0,0,-0.13333333,0,755.90667)" />
      <path
         id="path105"
         d="m 5215.76,5414.17 h 453.551 v 56.6953 H 5215.76 Z"
         style="fill:#faf9ad;fill-opacity:1;fill-rule:evenodd;stroke:none"
         transform="matrix(0.13333333,0,0,-0.13333333,0,755.90667)" />
      <path
         id="path106"
         d="m 5629.22,5102.36 40.09,40.09 v -80.18 l -413.47,-413.45 20.05,-20.05 336.72,336.72 56.7,56.69 v -486.75 h -425.2 l -31.55,3.55 -29.96,10.48 -26.88,16.89 -22.42,22.44 -16.89,26.87 -10.49,29.96 -3.54,31.54 v 425.2 h 526.84"
         style="fill:#faf9ad;fill-opacity:1;fill-rule:evenodd;stroke:none"
         transform="matrix(0.13333333,0,0,-0.13333333,0,755.90667)" />
    </g>
  </g>
</svg>
