<?xml version="1.0" encoding="UTF-8" standalone="no"?>
<!-- Created with Inkscape (http://www.inkscape.org/) -->

<svg
   version="1.1"
   id="svg1"
   width="216.06667"
   height="317.62668"
   viewBox="0 0 216.06667 317.62668"
   sodipodi:docname="SM2026_1 Primärlogo_weiss.eps"
   inkscape:export-filename="SM2026_1 Primärlogo_weiss.eps.png"
   inkscape:export-xdpi="96"
   inkscape:export-ydpi="96"
   xmlns:inkscape="http://www.inkscape.org/namespaces/inkscape"
   xmlns:sodipodi="http://sodipodi.sourceforge.net/DTD/sodipodi-0.dtd"
   xmlns="http://www.w3.org/2000/svg"
   xmlns:svg="http://www.w3.org/2000/svg">
  <defs
     id="defs1" />
  <sodipodi:namedview
     id="namedview1"
     pagecolor="#ffffff"
     bordercolor="#000000"
     borderopacity="0.25"
     inkscape:showpageshadow="2"
     inkscape:pageopacity="0.0"
     inkscape:pagecheckerboard="0"
     inkscape:deskcolor="#d1d1d1">
    <inkscape:page
       x="0"
       y="0"
       inkscape:label="1"
       id="page1"
       width="216.06667"
       height="317.62668"
       margin="0"
       bleed="0" />
  </sodipodi:namedview>
  <g
     id="g1"
     inkscape:groupmode="layer"
     inkscape:label="1">
    <g
       id="group-R5">
      <path
         id="path2"
         d="M 1366.28,761.609 H 254.258 C 114.418,761.609 0,876.031 0,1015.87 v 1112.02 c 0,139.84 114.418,254.26 254.258,254.26 H 1366.28 c 139.84,0 254.26,-114.42 254.26,-254.26 V 1015.87 c 0,-139.839 -114.42,-254.261 -254.26,-254.261"
         style="fill:#040606;fill-opacity:1;fill-rule:evenodd;stroke:none"
         transform="matrix(0.13333333,0,0,-0.13333333,0,317.62667)" />
      <path
         id="path3"
         d="M 1357.3,811.91 H 263.242 c -117.121,0 -212.9451,95.82 -212.9451,212.94 v 1094.06 c 0,117.12 95.8241,212.95 212.9451,212.95 H 1357.3 c 117.12,0 212.94,-95.83 212.94,-212.95 V 1024.85 c 0,-117.12 -95.82,-212.94 -212.94,-212.94"
         style="fill:#fad517;fill-opacity:1;fill-rule:evenodd;stroke:none"
         transform="matrix(0.13333333,0,0,-0.13333333,0,317.62667)" />
      <path
         id="path4"
         d="M 1366.94,761.609 H 253.594 C 114.117,761.609 0,875.73 0,1015.21 V 255.262 C 0,115.77 114.133,1.64063 253.629,1.64063 H 1366.91 c 139.5,0 253.63,114.12937 253.63,253.62137 v 759.948 c 0,-139.48 -114.12,-253.601 -253.6,-253.601"
         style="fill:#ffffff;fill-opacity:1;fill-rule:evenodd;stroke:none"
         transform="matrix(0.13333333,0,0,-0.13333333,0,317.62667)" />
      <path
         id="path5"
         d="m 1620.32,903.781 c -14.61,-44.172 -44.76,-73.019 -44.76,-77.871 0,-67.648 0,-558.949 0,-577.949 0,-0.422 -0.01,-0.781 -0.02,-1.199 -2.37,-70.532 -40.25,-136.672 -100.18,-174.0511 -0.67,-0.4218 -1.32,-0.8007 -2.02,-1.1718 -24.87,-13.1797 -72.7,-25.8985 -100.2,-26.5586 -111.56,-0.1211 -297.64,-0.0508 -471.093,0 0,0.0078 0,0.0195 0,0.0312 -29.133,0 -59.953,0 -91.777,-0.0117 -31.821,0.0117 -62.641,0.0117 -91.778,0.0117 0,-0.0117 0.004,-0.0234 0.004,-0.0312 -173.461,-0.0508 -359.531,-0.1211 -471.098,0 -27.492,0.6601 -75.324,13.3789 -100.195,26.5586 -0.703,0.3711 -1.351,0.75 -2.027,1.1718 C 85.25,110.09 47.3672,176.23 45,246.762 c -0.0117,0.418 -0.0195,0.777 -0.0195,1.199 0,19 0,510.301 0.0039,577.949 0,4.852 -24.2852,26.469 -44.757837,77.871 L 0,247.391 H 0.0546875 C 5.05469,108.789 109.258,5.01953 247.508,0 L 810.27,1.01172 1373.03,0 c 138.25,5.01953 242.46,108.789 247.45,247.391 h 0.06 l -0.22,656.39"
         style="fill:#040606;fill-opacity:1;fill-rule:evenodd;stroke:none"
         transform="matrix(0.13333333,0,0,-0.13333333,0,317.62667)" />
      <path
         id="path6"
         d="m 134.441,2062.95 c -0.359,53.76 1.719,77.41 6.051,95.64 19.207,80.89 92.352,83.6 173.184,83.6 v 0 -134.43 c 0,0 0,0 0,0 h -44.809 c 0,0 0,0 0,0 v 89.62 c 0,0 0,0 0,0 -9.328,1.6 -25.597,-1.1 -39.23,-4.36 -10.559,-2.52 -20.153,-8.03 -27.828,-15.71 l -0.313,-0.31 c -10.957,-10.96 -17.945,-25.14 -19.926,-40.43 -3.265,-25.24 -2.828,-57.41 -2.32,-73.62 v 0 h 134.426 v 0 -268.86 0 H 134.441 v 0 179.24 0 h 44.805 c 0.004,0 0.004,0 0.004,0 v -134.43 0 h 89.617 v 0 179.24 0 H 134.441 v 0 44.81"
         style="fill:#040606;fill-opacity:1;fill-rule:evenodd;stroke:none"
         transform="matrix(0.13333333,0,0,-0.13333333,0,317.62667)" />
      <path
         id="path7"
         d="m 358.488,1794.09 v 448.1 h 44.809 v -0.12 l 67.215,-67.21 67.215,67.21 v 0.12 h 44.808 v -448.1 h -44.808 v 384.64 l -67.215,-67.22 -67.215,67.22 v -384.64 h -44.809"
         style="fill:#040606;fill-opacity:1;fill-rule:evenodd;stroke:none"
         transform="matrix(0.13333333,0,0,-0.13333333,0,317.62667)" />
      <path
         id="path8"
         d="m 1030.63,920.309 v 89.621 h 22.4 v -89.621 h 44.81 v 67.211 h 22.41 v -67.211 -22.411 h -89.62 v 22.411"
         style="fill:#040606;fill-opacity:1;fill-rule:evenodd;stroke:none"
         transform="matrix(0.13333333,0,0,-0.13333333,0,317.62667)" />
      <path
         id="path9"
         d="m 1030.63,1054.74 v 67.21 h 89.62 v -112.02 h -22.41 v 0.05 h -67.21 v 22.41 h 67.21 v 67.16 h -44.81 v -44.81 h -22.4"
         style="fill:#040606;fill-opacity:1;fill-rule:evenodd;stroke:none"
         transform="matrix(0.13333333,0,0,-0.13333333,0,317.62667)" />
      <path
         id="path10"
         d="m 1142.65,897.898 v 224.052 h 89.62 V 897.898 h -89.62 m 22.41,201.652 V 920.309 h 44.81 v 179.241 h -44.81"
         style="fill:#040606;fill-opacity:1;fill-rule:evenodd;stroke:none"
         transform="matrix(0.13333333,0,0,-0.13333333,0,317.62667)" />
      <path
         id="path11"
         d="m 1254.68,920.309 v 89.621 h 22.4 v -89.621 h 44.81 v 67.211 h 22.4 v -67.211 -22.411 h -89.61 v 22.411"
         style="fill:#040606;fill-opacity:1;fill-rule:evenodd;stroke:none"
         transform="matrix(0.13333333,0,0,-0.13333333,0,317.62667)" />
      <path
         id="path12"
         d="m 1254.68,1054.74 v 67.21 h 89.61 v -112.02 h -22.4 v 0.05 h -67.21 v 22.41 h 67.21 v 67.16 h -44.81 v -44.81 h -22.4"
         style="fill:#040606;fill-opacity:1;fill-rule:evenodd;stroke:none"
         transform="matrix(0.13333333,0,0,-0.13333333,0,317.62667)" />
      <path
         id="path13"
         d="m 1041.83,1346 v -163.39 l 16.8,16.81 16.81,-16.81 V 1346 h 11.2 v -179.24 h -11.2 l -16.81,16.8 -16.8,-16.8 h -11.2 V 1346 h 11.2"
         style="fill:#040606;fill-opacity:1;fill-rule:evenodd;stroke:none"
         transform="matrix(0.13333333,0,0,-0.13333333,0,317.62667)" />
      <path
         id="path14"
         d="M 1097.84,1166.76 V 1346 h 44.81 v -179.24 h -11.2 -22.4 -11.21 m 11.21,168.04 v -156.84 h 22.4 v 156.84 h -22.4"
         style="fill:#040606;fill-opacity:1;fill-rule:evenodd;stroke:none"
         transform="matrix(0.13333333,0,0,-0.13333333,0,317.62667)" />
      <path
         id="path15"
         d="m 1153.85,1346 h 11.21 v -168.04 h 33.6 v -11.2 h -33.6 -11.21 V 1346"
         style="fill:#040606;fill-opacity:1;fill-rule:evenodd;stroke:none"
         transform="matrix(0.13333333,0,0,-0.13333333,0,317.62667)" />
      <path
         id="path16"
         d="m 1209.87,1346 h 11.2 v -168.04 h 33.61 v -11.2 h -33.61 -11.2 V 1346"
         style="fill:#040606;fill-opacity:1;fill-rule:evenodd;stroke:none"
         transform="matrix(0.13333333,0,0,-0.13333333,0,317.62667)" />
      <path
         id="path17"
         d="M 1321.89,1166.76 V 1346 h 44.81 v -78.42 h -11.2 -22.41 v -100.82 h -11.2 m 33.61,112.02 v 56.02 h -22.41 v -56.02 h 22.41"
         style="fill:#040606;fill-opacity:1;fill-rule:evenodd;stroke:none"
         transform="matrix(0.13333333,0,0,-0.13333333,0,317.62667)" />
      <path
         id="path18"
         d="M 1377.9,1166.76 V 1346 h 44.81 v -179.24 h -11.2 v 100.82 h -22.41 v -100.82 h -11.2 m 33.61,112.02 v 56.02 h -22.41 v -56.02 h 22.41"
         style="fill:#040606;fill-opacity:1;fill-rule:evenodd;stroke:none"
         transform="matrix(0.13333333,0,0,-0.13333333,0,317.62667)" />
      <path
         id="path19"
         d="m 1445.12,1346 v -168.04 h 22.4 V 1346 h 11.2 v -179.24 h -11.2 -22.4 -11.21 V 1346 h 11.21"
         style="fill:#040606;fill-opacity:1;fill-rule:evenodd;stroke:none"
         transform="matrix(0.13333333,0,0,-0.13333333,0,317.62667)" />
      <path
         id="path20"
         d="m 1344.29,1166.76 h 11.2109 v 89.6172 H 1344.29 Z"
         style="fill:#040606;fill-opacity:1;fill-rule:evenodd;stroke:none"
         transform="matrix(0.13333333,0,0,-0.13333333,0,317.62667)" />
      <path
         id="path21"
         d="m 1368.96,1794.77 c -52.88,-1.8 -195.97,-0.18 -221.41,-0.63 -26.8,2.28 -54.24,9.32 -75.67,27.63 -27.02,21.5 -38.87,56.37 -41.2,89.24 -0.12,20.29 -1.31,214.93 2.72,233.02 6.74,57.03 56.34,94.69 110.44,97.86 57.08,0.91 189.28,0.01 217.96,0.24 57.63,-1.73 109.1,-42.43 114.81,-101.59 5.28,-33.43 5.22,-219.89 -1.39,-252.01 -6.53,-51.63 -54.85,-90.08 -105.12,-93.59"
         style="fill:#040606;fill-opacity:1;fill-rule:evenodd;stroke:none"
         transform="matrix(0.13333333,0,0,-0.13333333,0,317.62667)" />
      <path
         id="path22"
         d="m 1366.7,920.309 c 0,52.339 0,148.921 0,201.651 h 112.02 c 0,-14.21 0,-52.52 0,-67.22 h -22.4 v 44.81 h -67.22 v -67.16 h 89.62 c 6.73,-68.55 -41.78,-131.609 -112.02,-134.48 v 22.399 m 22.4,89.681 c 0,-14.92 0,-70.912 0,-86.818 37.44,12.226 64.69,47.5 67.22,86.758 l -67.22,0.06"
         style="fill:#040606;fill-opacity:1;fill-rule:evenodd;stroke:none"
         transform="matrix(0.13333333,0,0,-0.13333333,0,317.62667)" />
      <path
         id="path23"
         d="M 1265.88,1166.76 V 1346 h 44.81 v -11.2 h -33.61 v -56.02 h 22.41 v -11.2 h -22.41 v -89.62 h 33.61 v -11.2 h -33.61 -11.2"
         style="fill:#040606;fill-opacity:1;fill-rule:evenodd;stroke:none"
         transform="matrix(0.13333333,0,0,-0.13333333,0,317.62667)" />
      <path
         id="path24"
         d="M 134.441,1346 H 582.535 V 897.898 c -148.937,0.063 -240.351,0.622 -320.176,0.622 -58.332,0 -127.16,36.98 -127.16,131.16 0,84.23 -0.758,104.18 -0.758,316.32"
         style="fill:#040606;fill-opacity:1;fill-rule:evenodd;stroke:none"
         transform="matrix(0.13333333,0,0,-0.13333333,0,317.62667)" />
      <path
         id="path25"
         d="m 784.176,987.52 h 44.8086 v 784.168 H 784.176 Z"
         style="fill:#ffffff;fill-opacity:1;fill-rule:evenodd;stroke:none"
         transform="matrix(0.13333333,0,0,-0.13333333,0,317.62667)" />
      <path
         id="path26"
         d="m 224.059,1592.45 h 537.715 v 44.8125 H 224.059 Z"
         style="fill:#ffffff;fill-opacity:1;fill-rule:evenodd;stroke:none"
         transform="matrix(0.13333333,0,0,-0.13333333,0,317.62667)" />
      <path
         id="path27"
         d="m 851.391,1592.45 h 425.688 v 44.8125 H 851.391 Z"
         style="fill:#ffffff;fill-opacity:1;fill-rule:evenodd;stroke:none"
         transform="matrix(0.13333333,0,0,-0.13333333,0,317.62667)" />
      <path
         id="path28"
         d="m 1232.27,1637.26 h 44.8086 v 134.426 H 1232.27 Z"
         style="fill:#ffffff;fill-opacity:1;fill-rule:evenodd;stroke:none"
         transform="matrix(0.13333333,0,0,-0.13333333,0,317.62667)" />
      <path
         id="path29"
         d="m 761.773,1556.92 v -63.35 l -506.011,-506.058 -31.703,31.698 537.714,537.71"
         style="fill:#ffffff;fill-opacity:1;fill-rule:evenodd;stroke:none"
         transform="matrix(0.13333333,0,0,-0.13333333,0,317.62667)" />
      <path
         id="path30"
         d="m 272.406,571.699 c -7.504,0 -13.226,2.321 -17.152,6.949 -3.938,4.633 -6.137,10.961 -6.602,19 l 11.098,3.024 c 0.789,-12.781 5.008,-19.184 12.656,-19.184 3.196,0 5.625,0.903 7.293,2.684 1.672,1.769 2.512,4.387 2.512,7.828 0,1.898 -0.234,3.648 -0.676,5.219 -0.453,1.582 -1.187,3.09 -2.211,4.531 -1.023,1.43 -1.996,2.629 -2.914,3.578 -0.906,0.953 -2.207,2.211 -3.898,3.801 l -14.973,13.301 c -3.019,2.73 -5.219,5.609 -6.598,8.648 -1.382,3.031 -2.078,6.731 -2.078,11.113 0,6.469 1.883,11.5 5.637,15.11 3.742,3.609 8.875,5.449 15.371,5.519 7.149,0.11 12.492,-1.73 16.055,-5.519 3.551,-3.789 5.679,-9.653 6.406,-17.582 l -10.508,-2.91 c -0.136,1.941 -0.34,3.66 -0.59,5.171 -0.25,1.5 -0.664,3.02 -1.234,4.551 -0.578,1.528 -1.273,2.758 -2.102,3.719 -0.832,0.941 -1.921,1.711 -3.281,2.262 -1.371,0.558 -2.953,0.777 -4.746,0.668 -6.57,-0.461 -9.851,-3.731 -9.851,-9.801 0,-2.629 0.445,-4.82 1.339,-6.57 0.899,-1.758 2.414,-3.61 4.528,-5.547 l 15.078,-13.313 c 3.918,-3.508 7.035,-7.277 9.351,-11.301 2.313,-4.027 3.473,-8.578 3.473,-13.679 0,-6.539 -1.98,-11.719 -5.926,-15.539 -3.957,-3.821 -9.105,-5.731 -15.457,-5.731"
         style="fill:#040606;fill-opacity:1;fill-rule:nonzero;stroke:none"
         transform="matrix(0.13333333,0,0,-0.13333333,0,317.62667)" />
      <path
         id="path31"
         d="m 325.887,571.699 c -3.703,0 -6.946,0.5 -9.754,1.512 -2.797,1 -5.082,2.359 -6.86,4.09 -1.785,1.719 -3.234,3.867 -4.371,6.429 -1.129,2.571 -1.91,5.27 -2.336,8.11 -0.433,2.832 -0.644,6.012 -0.644,9.531 v 31.559 c 0,3.769 0.223,7.129 0.664,10.07 0.457,2.941 1.234,5.691 2.348,8.238 1.117,2.551 2.562,4.653 4.359,6.301 1.793,1.652 4.09,2.941 6.867,3.883 2.781,0.937 6.024,1.398 9.727,1.398 8.039,0 13.797,-2.172 17.281,-6.511 3.484,-4.34 5.23,-10.739 5.23,-19.168 v -7.121 h -11.8 v 6.308 c 0,1.363 -0.008,2.434 -0.02,3.203 -0.019,0.77 -0.058,1.739 -0.117,2.879 -0.047,1.149 -0.145,2.051 -0.289,2.699 -0.145,0.641 -0.336,1.391 -0.567,2.25 -0.234,0.871 -0.531,1.539 -0.89,2.032 -0.356,0.48 -0.809,1 -1.34,1.55 -0.539,0.559 -1.156,0.981 -1.832,1.25 -0.688,0.27 -1.496,0.489 -2.422,0.668 -0.937,0.18 -1.98,0.27 -3.129,0.27 -1.726,0 -3.23,-0.188 -4.523,-0.57 -1.293,-0.368 -2.356,-0.969 -3.172,-1.77 -0.832,-0.809 -1.508,-1.699 -2.027,-2.668 -0.524,-0.973 -0.911,-2.211 -1.161,-3.75 -0.25,-1.519 -0.421,-2.992 -0.511,-4.41 -0.086,-1.422 -0.133,-3.172 -0.133,-5.262 v -35.32 c 0,-6.707 0.848,-11.379 2.539,-14.008 1.676,-2.609 4.676,-3.922 8.988,-3.922 1.653,0 3.078,0.172 4.285,0.539 1.196,0.352 2.18,0.942 2.961,1.774 0.774,0.816 1.391,1.687 1.856,2.59 0.461,0.886 0.808,2.097 1.019,3.628 0.223,1.532 0.348,2.942 0.407,4.231 0.058,1.289 0.078,2.98 0.078,5.07 v 6.571 h 11.8 v -6.633 c 0,-3.418 -0.214,-6.469 -0.648,-9.16 -0.434,-2.688 -1.168,-5.219 -2.207,-7.559 -1.043,-2.359 -2.402,-4.309 -4.094,-5.852 -1.687,-1.539 -3.84,-2.757 -6.465,-3.636 -2.621,-0.871 -5.652,-1.313 -9.097,-1.313"
         style="fill:#040606;fill-opacity:1;fill-rule:nonzero;stroke:none"
         transform="matrix(0.13333333,0,0,-0.13333333,0,317.62667)" />
      <path
         id="path32"
         d="m 360.352,572.672 v 89.289 h 12.437 v -38.563 h 22.941 v 38.563 h 12.438 V 572.672 H 395.73 v 41.84 h -22.941 v -41.84 h -12.437"
         style="fill:#040606;fill-opacity:1;fill-rule:nonzero;stroke:none"
         transform="matrix(0.13333333,0,0,-0.13333333,0,317.62667)" />
      <path
         id="path33"
         d="m 433.699,572.672 -14.597,89.289 h 10.449 l 9.531,-64.199 12.07,63.929 h 8.828 l 12.118,-64.203 9.32,64.473 h 10.18 L 477.27,572.672 h -9.051 l -12.438,66.129 -12.597,-66.129 h -9.485"
         style="fill:#040606;fill-opacity:1;fill-rule:nonzero;stroke:none"
         transform="matrix(0.13333333,0,0,-0.13333333,0,317.62667)" />
      <path
         id="path34"
         d="m 502.586,572.672 v 89.289 h 34.57 v -9.211 h -22.133 v -29.52 h 17.985 v -8.878 h -17.985 v -32.743 h 22.403 v -8.937 h -34.84"
         style="fill:#040606;fill-opacity:1;fill-rule:nonzero;stroke:none"
         transform="matrix(0.13333333,0,0,-0.13333333,0,317.62667)" />
      <path
         id="path35"
         d="m 548.098,572.672 v 89.289 h 12.222 v -89.289 h -12.222"
         style="fill:#040606;fill-opacity:1;fill-rule:nonzero;stroke:none"
         transform="matrix(0.13333333,0,0,-0.13333333,0,317.62667)" />
      <path
         id="path36"
         d="m 572.008,572.672 v 8.937 l 26.23,71.411 h -24.609 v 8.941 h 37.859 v -5.383 l -27.683,-74.969 h 27.742 v -8.937 h -39.539"
         style="fill:#040606;fill-opacity:1;fill-rule:nonzero;stroke:none"
         transform="matrix(0.13333333,0,0,-0.13333333,0,317.62667)" />
      <path
         id="path37"
         d="m 620.75,572.672 v 89.289 h 34.57 v -9.211 h -22.132 v -29.52 h 17.984 v -8.878 h -17.984 v -32.743 h 22.402 v -8.937 h -34.84"
         style="fill:#040606;fill-opacity:1;fill-rule:nonzero;stroke:none"
         transform="matrix(0.13333333,0,0,-0.13333333,0,317.62667)" />
      <path
         id="path38"
         d="m 678.109,623.5 h 4.688 c 5.422,0 9.293,1.07 11.605,3.219 2.317,2.133 3.477,6 3.477,11.59 0,5.429 -1.004,9.242 -2.992,11.429 -1.996,2.192 -5.762,3.282 -11.289,3.282 h -5.489 z m -12.437,-50.828 v 89.289 h 17.926 c 9.05,0 15.687,-1.852 19.906,-5.551 4.215,-3.691 6.328,-9.73 6.328,-18.101 0,-11.481 -3.687,-18.438 -11.039,-20.84 l 12.766,-44.797 h -12.071 l -11.742,41.898 h -9.637 v -41.898 h -12.437"
         style="fill:#040606;fill-opacity:1;fill-rule:nonzero;stroke:none"
         transform="matrix(0.13333333,0,0,-0.13333333,0,317.62667)" />
      <path
         id="path39"
         d="m 722.645,572.672 1.668,89.289 h 12.167 l 15.786,-72.441 15.89,72.441 h 12.164 l 1.672,-89.289 h -10.074 l -0.965,64.887 -15.137,-64.887 h -6.996 l -15.031,64.887 -0.965,-64.887 h -10.179"
         style="fill:#040606;fill-opacity:1;fill-rule:nonzero;stroke:none"
         transform="matrix(0.13333333,0,0,-0.13333333,0,317.62667)" />
      <path
         id="path40"
         d="m 795.73,572.672 v 89.289 h 34.571 v -9.211 h -22.133 v -29.52 h 17.984 v -8.878 h -17.984 v -32.743 h 22.402 v -8.937 h -34.84"
         style="fill:#040606;fill-opacity:1;fill-rule:nonzero;stroke:none"
         transform="matrix(0.13333333,0,0,-0.13333333,0,317.62667)" />
      <path
         id="path41"
         d="m 841.23,572.672 v 89.289 h 12.227 V 572.672 H 841.23"
         style="fill:#040606;fill-opacity:1;fill-rule:nonzero;stroke:none"
         transform="matrix(0.13333333,0,0,-0.13333333,0,317.62667)" />
      <path
         id="path42"
         d="m 888.961,571.699 c -7.508,0 -13.227,2.321 -17.152,6.949 -3.938,4.633 -6.137,10.961 -6.602,19 l 11.098,3.024 c 0.789,-12.781 5.008,-19.184 12.656,-19.184 3.195,0 5.625,0.903 7.297,2.684 1.668,1.769 2.508,4.387 2.508,7.828 0,1.898 -0.235,3.648 -0.676,5.219 -0.453,1.582 -1.188,3.09 -2.211,4.531 -1.024,1.43 -1.996,2.629 -2.914,3.578 -0.906,0.953 -2.207,2.211 -3.899,3.801 l -14.972,13.301 c -3.02,2.73 -5.219,5.609 -6.602,8.648 -1.379,3.031 -2.07,6.731 -2.07,11.113 0,6.469 1.879,11.5 5.633,15.11 3.742,3.609 8.875,5.449 15.371,5.519 7.148,0.11 12.492,-1.73 16.054,-5.519 3.551,-3.789 5.68,-9.653 6.407,-17.582 l -10.508,-2.91 c -0.137,1.941 -0.336,3.66 -0.59,5.171 -0.25,1.5 -0.664,3.02 -1.234,4.551 -0.578,1.528 -1.274,2.758 -2.102,3.719 -0.832,0.941 -1.922,1.711 -3.281,2.262 -1.371,0.558 -2.953,0.777 -4.746,0.668 -6.571,-0.461 -9.852,-3.731 -9.852,-9.801 0,-2.629 0.442,-4.82 1.34,-6.57 0.899,-1.758 2.414,-3.61 4.524,-5.547 l 15.082,-13.313 c 3.918,-3.508 7.035,-7.277 9.347,-11.301 2.317,-4.027 3.477,-8.578 3.477,-13.679 0,-6.539 -1.981,-11.719 -5.926,-15.539 -3.957,-3.821 -9.109,-5.731 -15.457,-5.731"
         style="fill:#040606;fill-opacity:1;fill-rule:nonzero;stroke:none"
         transform="matrix(0.13333333,0,0,-0.13333333,0,317.62667)" />
      <path
         id="path43"
         d="m 929.301,572.672 v 80.078 h -16.324 v 9.211 h 44.488 v -9.211 h -15.727 v -80.078 h -12.437"
         style="fill:#040606;fill-opacity:1;fill-rule:nonzero;stroke:none"
         transform="matrix(0.13333333,0,0,-0.13333333,0,317.62667)" />
      <path
         id="path44"
         d="m 964.305,572.672 v 89.289 h 34.57 v -9.211 h -22.133 v -29.52 h 17.985 v -8.878 h -17.985 v -32.743 h 22.403 v -8.937 h -34.84"
         style="fill:#040606;fill-opacity:1;fill-rule:nonzero;stroke:none"
         transform="matrix(0.13333333,0,0,-0.13333333,0,317.62667)" />
      <path
         id="path45"
         d="m 1021.65,623.5 h 4.69 c 5.43,0 9.29,1.07 11.61,3.219 2.32,2.133 3.47,6 3.47,11.59 0,5.429 -1,9.242 -2.99,11.429 -1.99,2.192 -5.76,3.282 -11.29,3.282 h -5.49 z m -12.43,-50.828 v 89.289 h 17.92 c 9.05,0 15.69,-1.852 19.91,-5.551 4.22,-3.691 6.33,-9.73 6.33,-18.101 0,-11.481 -3.69,-18.438 -11.04,-20.84 l 12.77,-44.797 h -12.07 l -11.75,41.898 h -9.64 v -41.898 h -12.43"
         style="fill:#040606;fill-opacity:1;fill-rule:nonzero;stroke:none"
         transform="matrix(0.13333333,0,0,-0.13333333,0,317.62667)" />
      <path
         id="path46"
         d="m 1087.48,571.699 c -7.51,0 -13.23,2.321 -17.16,6.949 -3.94,4.633 -6.14,10.961 -6.6,19 l 11.1,3.024 c 0.79,-12.781 5,-19.184 12.66,-19.184 3.19,0 5.62,0.903 7.29,2.684 1.67,1.769 2.51,4.387 2.51,7.828 0,1.898 -0.23,3.648 -0.68,5.219 -0.45,1.582 -1.18,3.09 -2.21,4.531 -1.02,1.43 -1.99,2.629 -2.91,3.578 -0.91,0.953 -2.21,2.211 -3.9,3.801 l -14.97,13.301 c -3.02,2.73 -5.22,5.609 -6.6,8.648 -1.38,3.031 -2.08,6.731 -2.08,11.113 0,6.469 1.88,11.5 5.64,15.11 3.74,3.609 8.87,5.449 15.37,5.519 7.15,0.11 12.49,-1.73 16.05,-5.519 3.55,-3.789 5.69,-9.653 6.41,-17.582 l -10.51,-2.91 c -0.13,1.941 -0.34,3.66 -0.59,5.171 -0.25,1.5 -0.66,3.02 -1.23,4.551 -0.58,1.528 -1.28,2.758 -2.1,3.719 -0.83,0.941 -1.92,1.711 -3.29,2.262 -1.37,0.558 -2.95,0.777 -4.74,0.668 -6.57,-0.461 -9.85,-3.731 -9.85,-9.801 0,-2.629 0.44,-4.82 1.34,-6.57 0.9,-1.758 2.41,-3.61 4.52,-5.547 l 15.08,-13.313 c 3.92,-3.508 7.04,-7.277 9.35,-11.301 2.32,-4.027 3.48,-8.578 3.48,-13.679 0,-6.539 -1.98,-11.719 -5.93,-15.539 -3.95,-3.821 -9.11,-5.731 -15.45,-5.731"
         style="fill:#040606;fill-opacity:1;fill-rule:nonzero;stroke:none"
         transform="matrix(0.13333333,0,0,-0.13333333,0,317.62667)" />
      <path
         id="path47"
         d="m 1140.96,571.699 c -3.71,0 -6.95,0.5 -9.76,1.512 -2.8,1 -5.08,2.359 -6.86,4.09 -1.78,1.719 -3.23,3.867 -4.37,6.429 -1.13,2.571 -1.91,5.27 -2.33,8.11 -0.44,2.832 -0.65,6.012 -0.65,9.531 v 31.559 c 0,3.769 0.22,7.129 0.67,10.07 0.45,2.941 1.23,5.691 2.34,8.238 1.12,2.551 2.57,4.653 4.36,6.301 1.8,1.652 4.09,2.941 6.87,3.883 2.78,0.937 6.02,1.398 9.73,1.398 8.03,0 13.79,-2.172 17.28,-6.511 3.48,-4.34 5.23,-10.739 5.23,-19.168 v -7.121 h -11.8 v 6.308 c 0,1.363 -0.01,2.434 -0.02,3.203 -0.02,0.77 -0.06,1.739 -0.12,2.879 -0.05,1.149 -0.14,2.051 -0.29,2.699 -0.14,0.641 -0.34,1.391 -0.57,2.25 -0.23,0.871 -0.53,1.539 -0.89,2.032 -0.35,0.48 -0.81,1 -1.34,1.55 -0.54,0.559 -1.16,0.981 -1.83,1.25 -0.69,0.27 -1.5,0.489 -2.42,0.668 -0.94,0.18 -1.98,0.27 -3.13,0.27 -1.73,0 -3.23,-0.188 -4.52,-0.57 -1.3,-0.368 -2.36,-0.969 -3.18,-1.77 -0.83,-0.809 -1.5,-1.699 -2.02,-2.668 -0.52,-0.973 -0.91,-2.211 -1.16,-3.75 -0.25,-1.519 -0.43,-2.992 -0.51,-4.41 -0.09,-1.422 -0.14,-3.172 -0.14,-5.262 v -35.32 c 0,-6.707 0.85,-11.379 2.54,-14.008 1.68,-2.609 4.68,-3.922 8.99,-3.922 1.65,0 3.08,0.172 4.29,0.539 1.19,0.352 2.18,0.942 2.96,1.774 0.77,0.816 1.39,1.687 1.85,2.59 0.46,0.886 0.81,2.097 1.02,3.628 0.22,1.532 0.35,2.942 0.41,4.231 0.06,1.289 0.08,2.98 0.08,5.07 v 6.571 h 11.8 v -6.633 c 0,-3.418 -0.22,-6.469 -0.65,-9.16 -0.44,-2.688 -1.17,-5.219 -2.21,-7.559 -1.04,-2.359 -2.4,-4.309 -4.09,-5.852 -1.69,-1.539 -3.84,-2.757 -6.47,-3.636 -2.62,-0.871 -5.65,-1.313 -9.09,-1.313"
         style="fill:#040606;fill-opacity:1;fill-rule:nonzero;stroke:none"
         transform="matrix(0.13333333,0,0,-0.13333333,0,317.62667)" />
      <path
         id="path48"
         d="m 1175.42,572.672 v 89.289 h 12.44 v -38.563 h 22.94 v 38.563 h 12.44 v -89.289 h -12.44 v 41.84 h -22.94 v -41.84 h -12.44"
         style="fill:#040606;fill-opacity:1;fill-rule:nonzero;stroke:none"
         transform="matrix(0.13333333,0,0,-0.13333333,0,317.62667)" />
      <path
         id="path49"
         d="m 1249.95,604.059 h 14.92 l -7.49,40.339 z m -17.66,-31.387 19.06,89.289 h 12.01 l 19.07,-89.289 h -11.85 l -4.09,22.508 h -18.15 l -4.25,-22.508 h -11.8"
         style="fill:#040606;fill-opacity:1;fill-rule:nonzero;stroke:none"
         transform="matrix(0.13333333,0,0,-0.13333333,0,317.62667)" />
      <path
         id="path50"
         d="m 1291.48,572.672 v 89.289 h 34.46 v -8.941 h -22.02 v -29.668 h 17.07 v -8.891 h -17.07 v -41.789 h -12.44"
         style="fill:#040606;fill-opacity:1;fill-rule:nonzero;stroke:none"
         transform="matrix(0.13333333,0,0,-0.13333333,0,317.62667)" />
      <path
         id="path51"
         d="m 1343.72,572.672 v 80.078 h -16.32 v 9.211 h 44.49 v -9.211 h -15.73 v -80.078 h -12.44"
         style="fill:#040606;fill-opacity:1;fill-rule:nonzero;stroke:none"
         transform="matrix(0.13333333,0,0,-0.13333333,0,317.62667)" />
      <path
         id="path52"
         d="m 259.988,355.352 v 140.636 h 13.317 l 39.953,-93.386 v 93.386 h 16.375 V 355.352 h -12.555 l -40.551,96.097 v -96.097 h -16.539"
         style="fill:#040606;fill-opacity:1;fill-rule:nonzero;stroke:none"
         transform="matrix(0.13333333,0,0,-0.13333333,0,317.62667)" />
      <path
         id="path53"
         d="m 370.145,404.809 h 23.492 l -11.789,63.531 z m -27.825,-49.457 30.024,140.636 h 18.922 l 30.023,-140.636 h -18.66 l -6.445,35.457 h -28.586 l -6.696,-35.457 H 342.32"
         style="fill:#040606;fill-opacity:1;fill-rule:nonzero;stroke:none"
         transform="matrix(0.13333333,0,0,-0.13333333,0,317.62667)" />
      <path
         id="path54"
         d="m 448.41,355.352 v 126.136 h -25.703 v 14.5 h 70.066 v -14.5 H 468.008 V 355.352 H 448.41"
         style="fill:#040606;fill-opacity:1;fill-rule:nonzero;stroke:none"
         transform="matrix(0.13333333,0,0,-0.13333333,0,317.62667)" />
      <path
         id="path55"
         d="m 502.914,355.352 v 140.636 h 19.25 V 355.352 h -19.25"
         style="fill:#040606;fill-opacity:1;fill-rule:nonzero;stroke:none"
         transform="matrix(0.13333333,0,0,-0.13333333,0,317.62667)" />
      <path
         id="path56"
         d="m 569.672,370.961 c 2.516,-1.191 5.699,-1.789 9.543,-1.789 3.848,0 7.023,0.598 9.539,1.789 2.519,1.187 4.43,2.988 5.73,5.418 1.305,2.43 2.192,5.109 2.676,8.019 0.473,2.911 0.711,6.524 0.711,10.813 v 61.59 c 0,4.238 -0.238,7.777 -0.711,10.597 -0.484,2.832 -1.371,5.442 -2.676,7.813 -1.3,2.367 -3.211,4.117 -5.73,5.219 -2.516,1.101 -5.691,1.648 -9.539,1.648 -3.844,0 -7.027,-0.547 -9.543,-1.648 -2.52,-1.102 -4.43,-2.852 -5.723,-5.219 -1.301,-2.371 -2.199,-4.981 -2.672,-7.813 -0.48,-2.82 -0.722,-6.359 -0.722,-10.597 v -61.59 c 0,-4.289 0.242,-7.902 0.722,-10.813 0.473,-2.91 1.371,-5.589 2.672,-8.019 1.293,-2.43 3.203,-4.231 5.723,-5.418 z m 9.543,-17.141 c -7.016,0 -13.016,1.051 -18.024,3.141 -5.007,2.09 -8.984,5.168 -11.918,9.238 -2.941,4.071 -5.093,8.832 -6.453,14.25 -1.351,5.43 -2.035,11.762 -2.035,19.012 v 53.269 c 0,14.641 2.988,25.75 8.953,33.29 5.961,7.558 15.793,11.332 29.477,11.332 13.633,0 23.441,-3.801 29.433,-11.411 5.993,-7.613 8.993,-18.671 8.993,-33.211 v -53.359 c 0,-14.641 -3.008,-25.902 -9.032,-33.762 -6.027,-7.859 -15.82,-11.789 -29.394,-11.789"
         style="fill:#040606;fill-opacity:1;fill-rule:nonzero;stroke:none"
         transform="matrix(0.13333333,0,0,-0.13333333,0,317.62667)" />
      <path
         id="path57"
         d="m 635.512,355.352 v 140.636 h 13.312 l 39.953,-93.386 v 93.386 h 16.375 V 355.352 h -12.55 l -40.555,96.097 v -96.097 h -16.535"
         style="fill:#040606;fill-opacity:1;fill-rule:nonzero;stroke:none"
         transform="matrix(0.13333333,0,0,-0.13333333,0,317.62667)" />
      <path
         id="path58"
         d="m 745.664,404.809 h 23.496 l -11.793,63.531 z m -27.824,-49.457 30.023,140.636 h 18.922 l 30.028,-140.636 h -18.661 l -6.445,35.457 h -28.59 l -6.695,-35.457 H 717.84"
         style="fill:#040606;fill-opacity:1;fill-rule:nonzero;stroke:none"
         transform="matrix(0.13333333,0,0,-0.13333333,0,317.62667)" />
      <path
         id="path59"
         d="m 809.496,355.352 v 140.636 h 19.598 V 369.422 h 35.883 v -14.07 h -55.481"
         style="fill:#040606;fill-opacity:1;fill-rule:nonzero;stroke:none"
         transform="matrix(0.13333333,0,0,-0.13333333,0,317.62667)" />
      <path
         id="path60"
         d="m 891.324,355.352 v 126.136 h -25.699 v 14.5 h 70.063 v -14.5 H 910.922 V 355.352 h -19.598"
         style="fill:#040606;fill-opacity:1;fill-rule:nonzero;stroke:none"
         transform="matrix(0.13333333,0,0,-0.13333333,0,317.62667)" />
      <path
         id="path61"
         d="m 996.734,356.16 c -4.41,-1.558 -9.621,-2.34 -15.613,-2.34 -5.988,0 -11.211,0.782 -15.648,2.34 -4.438,1.551 -8.047,3.66 -10.817,6.36 -2.769,2.679 -4.988,6.128 -6.656,10.351 -1.672,4.207 -2.816,8.668 -3.434,13.399 -0.628,4.718 -0.937,10.218 -0.937,16.5 v 93.218 h 18.66 v -94.16 c 0,-4.008 0.113,-7.488 0.336,-10.43 0.234,-2.937 0.742,-5.886 1.535,-8.859 0.793,-2.969 1.852,-5.367 3.176,-7.168 1.332,-1.82 3.152,-3.301 5.48,-4.461 2.317,-1.16 5.082,-1.738 8.305,-1.738 3.223,0 5.984,0.578 8.27,1.738 2.297,1.16 4.101,2.66 5.433,4.5 1.328,1.84 2.391,4.219 3.184,7.168 0.789,2.942 1.301,5.883 1.523,8.82 0.223,2.942 0.336,6.422 0.336,10.43 v 94.16 h 18.663 V 402.77 c 0,-6.282 -0.31,-11.782 -0.93,-16.5 -0.62,-4.731 -1.77,-9.192 -3.43,-13.399 -1.67,-4.223 -3.89,-7.672 -6.67,-10.351 -2.77,-2.7 -6.36,-4.809 -10.766,-6.36"
         style="fill:#040606;fill-opacity:1;fill-rule:nonzero;stroke:none"
         transform="matrix(0.13333333,0,0,-0.13333333,0,317.62667)" />
      <path
         id="path62"
         d="m 1057.34,435.43 h 7.38 c 8.54,0 14.63,1.679 18.28,5.039 3.66,3.359 5.48,9.461 5.48,18.281 0,8.539 -1.57,14.539 -4.71,17.98 -3.15,3.461 -9.07,5.18 -17.77,5.18 h -8.66 z m -19.59,-80.078 V 495.988 H 1066 c 14.25,0 24.7,-2.91 31.34,-8.726 6.64,-5.832 9.96,-15.332 9.96,-28.512 0,-18.09 -5.79,-29.031 -17.38,-32.82 l 20.1,-70.578 h -19 l -18.49,65.988 h -15.19 v -65.988 h -19.59"
         style="fill:#040606;fill-opacity:1;fill-rule:nonzero;stroke:none"
         transform="matrix(0.13333333,0,0,-0.13333333,0,317.62667)" />
      <path
         id="path63"
         d="m 1126.36,355.352 v 140.636 h 13.31 l 39.96,-93.386 v 93.386 H 1196 V 355.352 h -12.55 l -40.56,96.097 v -96.097 h -16.53"
         style="fill:#040606;fill-opacity:1;fill-rule:nonzero;stroke:none"
         transform="matrix(0.13333333,0,0,-0.13333333,0,317.62667)" />
      <path
         id="path64"
         d="m 1216.49,355.352 v 140.636 h 54.46 v -14.5 h -34.86 V 435 h 28.33 v -14 h -28.33 v -51.578 h 35.28 v -14.07 h -54.88"
         style="fill:#040606;fill-opacity:1;fill-rule:nonzero;stroke:none"
         transform="matrix(0.13333333,0,0,-0.13333333,0,317.62667)" />
      <path
         id="path65"
         d="m 1285.67,355.352 v 140.636 h 13.31 l 39.96,-93.386 v 93.386 h 16.37 V 355.352 h -12.55 l -40.55,96.097 v -96.097 h -16.54"
         style="fill:#040606;fill-opacity:1;fill-rule:nonzero;stroke:none"
         transform="matrix(0.13333333,0,0,-0.13333333,0,317.62667)" />
      <path
         id="path66"
         d="m 282.625,156.809 v 96.132 c -0.047,-0.101 -0.453,-0.23 -1.227,-0.421 -0.769,-0.188 -1.746,-0.411 -2.941,-0.668 -1.187,-0.25 -2.48,-0.532 -3.887,-0.84 -1.402,-0.301 -2.808,-0.582 -4.238,-0.84 -1.418,-0.25 -2.699,-0.5 -3.848,-0.731 -1.14,-0.23 -2.113,-0.429 -2.906,-0.562 l -1.187,-0.207 v 11.617 c 11.812,3.031 19.789,7.242 23.949,12.602 h 11.617 V 156.809 h -15.332"
         style="fill:#040606;fill-opacity:1;fill-rule:nonzero;stroke:none"
         transform="matrix(0.13333333,0,0,-0.13333333,0,317.62667)" />
      <path
         id="path67"
         d="m 352.855,214.359 c 5.645,0 10.036,2.641 13.161,7.911 v 17.3 c 0,14.559 -4.391,21.84 -13.161,21.84 -2.433,0 -4.546,-0.57 -6.339,-1.719 -1.793,-1.132 -3.184,-2.742 -4.168,-4.793 -0.977,-2.058 -1.688,-4.296 -2.133,-6.75 -0.442,-2.449 -0.664,-5.199 -0.664,-8.226 0,-2.473 0.008,-4.422 0.039,-5.852 0.019,-1.429 0.125,-3.172 0.308,-5.218 0.18,-2.051 0.442,-3.68 0.77,-4.864 0.328,-1.187 0.82,-2.468 1.469,-3.847 0.656,-1.379 1.445,-2.442 2.383,-3.192 0.933,-0.75 2.101,-1.371 3.5,-1.859 1.402,-0.481 3.011,-0.731 4.835,-0.731 z m 0.067,-58.82 c -9.059,0 -16.035,2.492 -20.938,7.461 -4.898,4.969 -7.418,12.078 -7.562,21.32 -0.039,0.192 -0.067,0.61 -0.067,1.27 h 15.407 c 0,-5.942 0.957,-10.309 2.867,-13.129 1.918,-2.832 5.375,-4.242 10.359,-4.242 8.684,0 13.028,8.312 13.028,24.922 v 17.578 c -3.321,-5.328 -8.985,-7.981 -17.012,-7.981 -4.668,0 -8.652,0.782 -11.945,2.352 -3.289,1.558 -5.864,3.859 -7.735,6.922 -1.863,3.058 -3.207,6.547 -4.023,10.468 -0.821,3.918 -1.227,8.5 -1.227,13.719 0,5.461 0.539,10.422 1.61,14.891 1.074,4.461 2.73,8.422 4.968,11.89 2.25,3.489 5.243,6.192 9.004,8.129 3.754,1.942 8.153,2.903 13.199,2.903 4.903,0 9.204,-0.973 12.918,-2.942 3.707,-1.961 6.688,-4.679 8.926,-8.148 2.239,-3.481 3.918,-7.481 5.035,-12.012 1.129,-4.531 1.688,-9.5 1.688,-14.91 v -39.078 c 0,-4.711 -0.277,-9.043 -0.836,-12.981 -0.57,-3.953 -1.535,-7.703 -2.914,-11.269 -1.371,-3.57 -3.129,-6.602 -5.25,-9.07 -2.121,-2.481 -4.844,-4.442 -8.152,-5.891 -3.321,-1.441 -7.102,-2.172 -11.348,-2.172"
         style="fill:#040606;fill-opacity:1;fill-rule:nonzero;stroke:none"
         transform="matrix(0.13333333,0,0,-0.13333333,0,317.62667)" />
      <path
         id="path68"
         d="m 383.961,156.809 v 17.011 h 15.398 v -17.011 h -15.398"
         style="fill:#040606;fill-opacity:1;fill-rule:nonzero;stroke:none"
         transform="matrix(0.13333333,0,0,-0.13333333,0,317.62667)" />
      <path
         id="path69"
         d="m 472.617,155.539 c -9.762,0 -17.191,3.012 -22.304,9.039 -5.106,6.024 -7.969,14.25 -8.579,24.711 l 14.426,3.93 c 1.031,-16.629 6.512,-24.93 16.457,-24.93 4.153,0 7.317,1.152 9.485,3.461 2.171,2.32 3.253,5.711 3.253,10.191 0,2.481 -0.289,4.739 -0.871,6.789 -0.586,2.059 -1.543,4.02 -2.875,5.891 -1.328,1.859 -2.586,3.41 -3.781,4.649 -1.187,1.242 -2.875,2.878 -5.074,4.941 L 453.293,221.5 c -3.926,3.551 -6.781,7.289 -8.578,11.238 -1.805,3.942 -2.699,8.762 -2.699,14.461 0,8.403 2.441,14.949 7.324,19.629 4.871,4.703 11.539,7.094 19.988,7.184 9.281,0.148 16.238,-2.25 20.86,-7.184 4.621,-4.918 7.402,-12.539 8.335,-22.848 l -13.652,-3.781 c -0.191,2.512 -0.441,4.762 -0.769,6.723 -0.329,1.957 -0.872,3.93 -1.614,5.906 -0.754,1.992 -1.66,3.594 -2.73,4.844 -1.07,1.226 -2.496,2.207 -4.274,2.937 -1.773,0.719 -3.832,1.012 -6.156,0.871 -8.547,-0.609 -12.812,-4.851 -12.812,-12.75 0,-3.402 0.578,-6.25 1.746,-8.531 1.168,-2.289 3.125,-4.687 5.886,-7.211 l 19.606,-17.297 c 5.086,-4.57 9.137,-9.48 12.144,-14.711 3.012,-5.218 4.516,-11.148 4.516,-17.781 0,-8.5 -2.566,-15.23 -7.707,-20.199 -5.133,-4.969 -11.828,-7.461 -20.09,-7.461"
         style="fill:#040606;fill-opacity:1;fill-rule:nonzero;stroke:none"
         transform="matrix(0.13333333,0,0,-0.13333333,0,317.62667)" />
      <path
         id="path70"
         d="m 513.152,156.809 v 116.082 h 44.95 v -11.969 h -28.77 v -38.371 h 23.387 V 211 h -23.387 v -42.57 h 29.129 v -11.621 h -45.309"
         style="fill:#040606;fill-opacity:1;fill-rule:nonzero;stroke:none"
         transform="matrix(0.13333333,0,0,-0.13333333,0,317.62667)" />
      <path
         id="path71"
         d="m 587.723,222.48 h 7.351 c 7.094,0 11.973,1.27 14.629,3.782 2.66,2.519 3.992,7.359 3.992,14.5 0,2.937 -0.066,5.347 -0.211,7.238 -0.136,1.891 -0.453,3.68 -0.945,5.359 -0.484,1.68 -1.129,2.981 -1.922,3.879 -0.801,0.922 -1.898,1.692 -3.328,2.352 -1.426,0.648 -3.078,1.101 -4.969,1.332 -1.89,0.226 -4.234,0.348 -7.035,0.348 h -7.562 z m -16.18,-65.671 v 116.082 h 28.781 c 10.082,0 17.387,-2.719 21.91,-8.153 4.536,-5.437 6.793,-13.41 6.793,-23.918 0,-9.422 -2.429,-16.781 -7.312,-22.05 -4.883,-5.27 -11.985,-7.911 -21.324,-7.911 h -12.668 v -54.05 h -16.18"
         style="fill:#040606;fill-opacity:1;fill-rule:nonzero;stroke:none"
         transform="matrix(0.13333333,0,0,-0.13333333,0,317.62667)" />
      <path
         id="path72"
         d="m 652.281,156.809 v 104.113 h -21.218 v 11.969 h 57.839 V 260.922 H 668.449 V 156.809 h -16.168"
         style="fill:#040606;fill-opacity:1;fill-rule:nonzero;stroke:none"
         transform="matrix(0.13333333,0,0,-0.13333333,0,317.62667)" />
      <path
         id="path73"
         d="m 697.793,156.809 v 116.082 h 44.949 v -11.969 h -28.769 v -38.371 h 23.386 V 211 h -23.386 v -42.57 h 29.125 v -11.621 h -45.305"
         style="fill:#040606;fill-opacity:1;fill-rule:nonzero;stroke:none"
         transform="matrix(0.13333333,0,0,-0.13333333,0,317.62667)" />
      <path
         id="path74"
         d="m 755.836,156.809 2.172,116.082 h 15.82 L 794.34,178.719 815,272.891 h 15.82 l 2.172,-116.082 h -13.094 l -1.253,84.371 -19.68,-84.371 h -9.102 l -19.539,84.371 -1.254,-84.371 h -13.234"
         style="fill:#040606;fill-opacity:1;fill-rule:nonzero;stroke:none"
         transform="matrix(0.13333333,0,0,-0.13333333,0,317.62667)" />
      <path
         id="path75"
         d="m 867.023,168.43 h 10.918 c 7.008,0 11.782,1.64 14.36,4.929 2.566,3.289 3.847,8.84 3.847,16.641 0,7.422 -1.531,12.949 -4.589,16.621 -3.059,3.668 -8.039,5.5 -14.946,5.5 h -9.59 z m 0,56.011 h 9.52 c 6.68,0 11.309,1.489 13.895,4.45 2.593,2.961 3.886,7.949 3.886,14.937 0,2.293 -0.164,4.293 -0.488,5.992 -0.328,1.7 -0.746,3.168 -1.258,4.379 -0.519,1.211 -1.301,2.223 -2.351,3.039 -1.043,0.821 -2.106,1.481 -3.184,1.961 -1.07,0.492 -2.527,0.871 -4.371,1.121 -1.844,0.258 -3.617,0.43 -5.328,0.489 -1.696,0.082 -3.887,0.113 -6.539,0.113 h -3.782 z M 850.84,156.809 v 116.082 h 26.543 c 10.547,0 18.371,-2.352 23.457,-7.071 5.082,-4.718 7.633,-12.039 7.633,-21.992 0,-14.789 -5.559,-22.957 -16.664,-24.488 6.859,-1.692 11.867,-4.918 15.011,-9.711 3.157,-4.789 4.727,-11.328 4.727,-19.629 0,-10.461 -2.449,-18.609 -7.352,-24.441 -4.898,-5.84 -12.386,-8.75 -22.468,-8.75 H 850.84"
         style="fill:#040606;fill-opacity:1;fill-rule:nonzero;stroke:none"
         transform="matrix(0.13333333,0,0,-0.13333333,0,317.62667)" />
      <path
         id="path76"
         d="m 925.973,156.809 v 116.082 h 44.953 v -11.969 h -28.774 v -38.371 h 23.387 V 211 h -23.387 v -42.57 h 29.129 v -11.621 h -45.308"
         style="fill:#040606;fill-opacity:1;fill-rule:nonzero;stroke:none"
         transform="matrix(0.13333333,0,0,-0.13333333,0,317.62667)" />
      <path
         id="path77"
         d="m 1000.55,222.91 h 6.09 c 7.05,0 12.08,1.391 15.09,4.149 3.01,2.781 4.52,7.82 4.52,15.089 0,7.063 -1.3,12.012 -3.89,14.852 -2.59,2.852 -7.48,4.27 -14.67,4.27 h -7.14 z m -16.175,-66.101 v 116.082 h 23.315 c 11.76,0 20.39,-2.403 25.87,-7.2 5.49,-4.82 8.23,-12.66 8.23,-23.543 0,-14.929 -4.78,-23.957 -14.36,-27.089 l 16.6,-58.25 h -15.68 l -15.26,54.472 h -12.54 v -54.472 h -16.175"
         style="fill:#040606;fill-opacity:1;fill-rule:nonzero;stroke:none"
         transform="matrix(0.13333333,0,0,-0.13333333,0,317.62667)" />
      <path
         id="path78"
         d="m 1090.16,156.809 v 10.921 l 29.55,46.071 c 0.61,0.929 1.64,2.539 3.12,4.789 1.46,2.269 2.49,3.879 3.07,4.84 0.58,0.949 1.39,2.41 2.42,4.379 1.03,1.961 1.75,3.632 2.17,5.031 0.42,1.398 0.82,3.109 1.19,5.121 0.37,2 0.56,4.059 0.56,6.148 0,11.532 -3.85,17.301 -11.56,17.301 -9.19,0 -13.78,-7.14 -13.78,-21.43 v -3.851 h -15.34 v 3.93 c 0,10.921 2.24,19.312 6.72,25.16 4.49,5.871 11.68,8.793 21.57,8.793 9.24,0 16.19,-2.614 20.86,-7.84 4.67,-5.223 7.01,-12.621 7.01,-22.192 0,-3.41 -0.27,-6.531 -0.81,-9.378 -0.54,-2.864 -1.49,-5.711 -2.84,-8.582 -1.35,-2.872 -2.52,-5.122 -3.5,-6.758 -0.97,-1.633 -2.54,-4.114 -4.69,-7.422 -0.41,-0.61 -0.72,-1.07 -0.91,-1.399 l -26.67,-40.75 h 36.69 v -12.882 h -54.83"
         style="fill:#040606;fill-opacity:1;fill-rule:nonzero;stroke:none"
         transform="matrix(0.13333333,0,0,-0.13333333,0,317.62667)" />
      <path
         id="path79"
         d="m 1188.12,168.148 c 8.86,0 13.3,7.192 13.3,21.571 v 50.203 c 0,3.117 -0.17,5.859 -0.52,8.226 -0.36,2.352 -0.99,4.59 -1.93,6.711 -0.94,2.129 -2.31,3.762 -4.13,4.903 -1.82,1.148 -4.06,1.718 -6.72,1.718 -2.66,0 -4.9,-0.57 -6.72,-1.718 -1.82,-1.141 -3.2,-2.774 -4.14,-4.903 -0.92,-2.121 -1.57,-4.359 -1.92,-6.711 -0.35,-2.367 -0.53,-5.109 -0.53,-8.226 v -50.203 c 0,-14.379 4.44,-21.571 13.31,-21.571 z m 0,-12.609 c -9.48,0 -16.63,3.121 -21.46,9.352 -4.84,6.23 -7.25,14.55 -7.25,24.961 v 49.929 c 0,10.68 2.36,19.071 7.08,25.129 4.7,6.07 11.92,9.102 21.63,9.102 9.66,0 16.87,-3.043 21.64,-9.133 4.75,-6.09 7.14,-14.457 7.14,-25.098 v -49.929 c 0,-10.5 -2.41,-18.84 -7.22,-25.032 -4.8,-6.179 -11.99,-9.281 -21.56,-9.281"
         style="fill:#040606;fill-opacity:1;fill-rule:nonzero;stroke:none"
         transform="matrix(0.13333333,0,0,-0.13333333,0,317.62667)" />
      <path
         id="path80"
         d="m 1229.14,156.809 v 10.921 l 29.55,46.071 c 0.61,0.929 1.64,2.539 3.12,4.789 1.47,2.269 2.49,3.879 3.08,4.84 0.58,0.949 1.39,2.41 2.41,4.379 1.03,1.961 1.76,3.632 2.17,5.031 0.43,1.398 0.82,3.109 1.2,5.121 0.36,2 0.56,4.059 0.56,6.148 0,11.532 -3.85,17.301 -11.56,17.301 -9.2,0 -13.79,-7.14 -13.79,-21.43 v -3.851 h -15.34 v 3.93 c 0,10.921 2.25,19.312 6.72,25.16 4.49,5.871 11.68,8.793 21.57,8.793 9.24,0 16.2,-2.614 20.87,-7.84 4.67,-5.223 7,-12.621 7,-22.192 0,-3.41 -0.27,-6.531 -0.81,-9.378 -0.54,-2.864 -1.48,-5.711 -2.83,-8.582 -1.36,-2.872 -2.52,-5.122 -3.51,-6.758 -0.97,-1.633 -2.53,-4.114 -4.69,-7.422 -0.41,-0.61 -0.72,-1.07 -0.9,-1.399 l -26.68,-40.75 h 36.69 v -12.882 h -54.83"
         style="fill:#040606;fill-opacity:1;fill-rule:nonzero;stroke:none"
         transform="matrix(0.13333333,0,0,-0.13333333,0,317.62667)" />
      <path
         id="path81"
         d="m 1328.15,168.219 c 2.48,0 4.6,0.562 6.38,1.679 1.76,1.122 3.14,2.692 4.13,4.731 0.97,2.019 1.69,4.281 2.13,6.75 0.44,2.48 0.67,5.25 0.67,8.34 0,2.422 -0.01,4.351 -0.04,5.769 -0.02,1.422 -0.13,3.172 -0.31,5.25 -0.19,2.082 -0.44,3.711 -0.77,4.91 -0.33,1.18 -0.82,2.473 -1.48,3.883 -0.65,1.399 -1.45,2.457 -2.37,3.188 -0.94,0.722 -2.11,1.34 -3.5,1.851 -1.4,0.508 -3.01,0.77 -4.84,0.77 -2.99,0 -5.61,-0.77 -7.87,-2.309 -2.27,-1.543 -4.05,-3.429 -5.36,-5.672 v -17.3 c 0,-14.559 4.41,-21.84 13.23,-21.84 z m 0,-12.68 c -4.9,0 -9.2,0.992 -12.92,2.941 -3.7,1.961 -6.68,4.692 -8.92,8.2 -2.24,3.5 -3.92,7.511 -5.05,12.039 -1.12,4.531 -1.68,9.5 -1.68,14.91 v 39.152 c 0,5.918 0.49,11.258 1.44,15.989 0.96,4.742 2.49,9.058 4.58,12.96 2.11,3.899 5.07,6.918 8.9,9.059 3.83,2.152 8.37,3.223 13.65,3.223 9.01,0 15.94,-2.442 20.79,-7.313 4.87,-4.879 7.4,-11.867 7.64,-20.98 0,-0.129 0.01,-0.399 0.03,-0.797 0.02,-0.391 0.04,-0.692 0.04,-0.871 h -15.41 c 0,5.879 -0.95,10.238 -2.86,13.09 -1.92,2.839 -5.31,4.269 -10.16,4.269 -8.87,0 -13.3,-8.289 -13.3,-24.851 V 218.91 c 1.59,2.469 3.83,4.442 6.76,5.891 2.91,1.429 6.34,2.168 10.25,2.168 3.79,0 7.11,-0.528 9.98,-1.578 2.88,-1.063 5.25,-2.52 7.14,-4.411 1.89,-1.89 3.43,-4.269 4.62,-7.109 1.2,-2.851 2.04,-5.93 2.53,-9.242 0.48,-3.32 0.73,-7.051 0.73,-11.207 0,-4.344 -0.33,-8.363 -0.98,-12.07 -0.66,-3.711 -1.72,-7.172 -3.19,-10.364 -1.46,-3.199 -3.3,-5.937 -5.49,-8.199 -2.2,-2.258 -4.92,-4.039 -8.16,-5.32 -3.24,-1.278 -6.9,-1.93 -10.96,-1.93"
         style="fill:#040606;fill-opacity:1;fill-rule:nonzero;stroke:none"
         transform="matrix(0.13333333,0,0,-0.13333333,0,317.62667)" />
      <path
         id="path82"
         d="m 805.047,1842.25 c -48.762,0 -88.285,39.53 -88.285,88.29 0,48.76 39.523,88.28 88.285,88.28 48.762,0 88.289,-39.52 88.289,-88.28 0,-48.76 -39.527,-88.29 -88.289,-88.29 z m 0,220.16 c -73.649,0 -133.356,-59.7 -133.356,-133.35 0,-73.65 59.707,-133.35 133.356,-133.35 73.648,0 133.355,59.7 133.355,133.35 0,73.65 -59.707,133.35 -133.355,133.35"
         style="fill:#ffffff;fill-opacity:1;fill-rule:evenodd;stroke:none"
         transform="matrix(0.13333333,0,0,-0.13333333,0,317.62667)" />
    </g>
  </g>
</svg>
