<?xml version="1.0" encoding="UTF-8" standalone="no"?>
<!-- Created with Inkscape (http://www.inkscape.org/) -->

<svg
   version="1.1"
   id="svg1"
   width="1532.0133"
   height="767.18665"
   viewBox="0 0 1532.0133 767.18665"
   sodipodi:docname="Logo-STVWB---Schwarz.eps"
   inkscape:export-filename="Logo-STVWB---Schwarz.eps.svg"
   inkscape:export-xdpi="96"
   inkscape:export-ydpi="96"
   xmlns:inkscape="http://www.inkscape.org/namespaces/inkscape"
   xmlns:sodipodi="http://sodipodi.sourceforge.net/DTD/sodipodi-0.dtd"
   xmlns="http://www.w3.org/2000/svg"
   xmlns:svg="http://www.w3.org/2000/svg">
  <defs
     id="defs1" />
  <sodipodi:namedview
     id="namedview1"
     pagecolor="#ffffff"
     bordercolor="#000000"
     borderopacity="0.25"
     inkscape:showpageshadow="2"
     inkscape:pageopacity="0.0"
     inkscape:pagecheckerboard="0"
     inkscape:deskcolor="#d1d1d1"
     inkscape:export-bgcolor="#ffffff00">
    <inkscape:page
       x="0"
       y="0"
       inkscape:label="1"
       id="page1"
       width="1532.0133"
       height="767.18665"
       margin="0"
       bleed="0" />
  </sodipodi:namedview>
  <g
     id="g1"
     inkscape:groupmode="layer"
     inkscape:label="1">
    <g
       id="group-R5">
      <path
         id="path2"
         d="m 5711.9,4299.8 c 0,0 -378.53,-161.18 -442.83,-139.67 -64.54,21.05 -171.43,157.33 -177.37,287.96 -5.74,130.61 -43.81,940.33 -50.16,996.09 -6.46,55.85 38.18,184.32 129.99,183.78 91.76,-0.74 365.28,4.81 365.28,4.81 0,0 113.61,-40.57 115.18,-140.38 1.52,-99.84 35.35,-151.4 -69.05,-156.25 -104.36,-4.99 -231.95,55.07 -254.7,-55.77 -22.74,-110.32 -29.28,-188.55 38.66,-200.29 67.77,-11.25 258.98,24.8 273.76,-110.81 14.66,-135.44 28.33,-154.76 -67.73,-180.93 -95.57,-26.11 -238.51,-40.69 -230.84,-119.84 8.28,-79.61 -18.15,-141.62 91.21,-150.95 109.45,-9.59 210.11,43.01 254.3,-19.9 79.14,-112.17 48.8,-170.47 24.3,-197.85"
         style="fill:#231f20;fill-opacity:1;fill-rule:evenodd;stroke:none"
         transform="matrix(0.13333333,0,0,-0.13333333,0,767.18667)" />
      <path
         id="path3"
         d="m 2645.75,4554.98 c 0,0 96.22,159.31 79.22,243.91 -17.09,84.3 -33.38,168.31 -130.69,124.63 -96.95,-43.21 -124.9,-63.65 -97.14,-176.68 27.58,-113.01 26.97,-130.17 42.95,-173.16 44.53,-121.21 105.66,-18.7 105.66,-18.7 z m -216.03,-715.04 c -17.87,67.07 -246,991.77 -237.09,1062.49 9.44,71.2 -1.09,175.4 173.61,236.93 174.78,61.65 394.76,44.65 445.56,-1.23 74.16,-67.09 266.28,-280.9 180.58,-469.61 -86.04,-189.21 -83.32,-196.46 -114.23,-226.94 -31.37,-30.98 -60.57,-84.87 12.91,-169.09 73.62,-84.29 170.43,-117.09 210.8,-207.18 40.44,-89.9 91.28,-267.87 -42.49,-210.46 -133.43,56.96 -304.28,155.44 -334.56,217.55 -29.63,62.09 -152.56,165.81 -114.08,24.14 38.24,-142.09 154.73,-323.6 7.2,-364.11 -147.51,-41.08 -188.21,107.51 -188.21,107.51"
         style="fill:#231f20;fill-opacity:1;fill-rule:evenodd;stroke:none"
         transform="matrix(0.13333333,0,0,-0.13333333,0,767.18667)" />
      <path
         id="path4"
         d="m 3324.27,4073.85 c 0,0 -180.16,1005.45 -180.18,1063.27 -0.51,57.73 79.37,199.67 181.16,138.86 63.42,-37.65 115.11,-82.07 165.44,-217.69 50.04,-136.1 109.57,-335.85 146.31,-377.24 36.26,-41.64 115.56,-65.55 77.76,93.24 -37.28,158.94 -143.15,522.12 -153.43,549.72 -10.18,28.22 4.99,160.39 108.9,165.37 103.66,4.61 146.22,-34.21 163.61,-177.12 17.25,-142.64 131.56,-909.41 158.04,-980.81 26.59,-72.07 39.2,-183.51 41.92,-190.58 12.01,-32 33.95,-185.69 -155.48,-94.7 -189,90.87 -320.78,466.64 -339.28,516.65 -18.28,49.56 -109.32,200.59 -84.89,19.76 24.45,-181.06 79.16,-423.45 97.71,-473.79 18.88,-50.03 84.37,-171.33 -38.48,-201.65 -123.58,-29.7 -189.11,166.71 -189.11,166.71"
         style="fill:#231f20;fill-opacity:1;fill-rule:evenodd;stroke:none"
         transform="matrix(0.13333333,0,0,-0.13333333,0,767.18667)" />
      <path
         id="path5"
         d="m 4073.62,5218.82 c 0,0 229.22,-773.63 258.05,-852.5 29.31,-78.96 1.94,-140.65 197.31,-228.84 195.12,-88.21 221.6,33.22 209.16,160.64 -12.23,127.58 55.75,1051.77 48.67,1090.55 -7.25,38.72 15.01,206.67 -95.14,199.59 -109.35,-7.56 -187.31,-26.5 -183.53,-132.63 3.72,-106.53 -2.52,-585.38 20.86,-667.14 22.88,-81.82 34.65,-208.81 -8.18,-169.96 -42.63,38.8 -146.12,522.75 -188.37,624.99 -66.82,161.96 -186.23,196.58 -240.69,192.82 -89.1,-6.67 -18.14,-217.52 -18.14,-217.52"
         style="fill:#231f20;fill-opacity:1;fill-rule:evenodd;stroke:none"
         transform="matrix(0.13333333,0,0,-0.13333333,0,767.18667)" />
      <path
         id="path6"
         d="m 1326.63,4648.36 c 0,0 55.87,-475.91 172.74,-774.53 108.55,-275.35 335.13,-334.31 422.04,-320.65 87.04,14.06 267.33,78.81 257.45,316.22 -9.96,237.48 -143.42,829.19 -172.71,907.91 -29.17,78.91 -50.47,194.32 -184.01,192.6 -134.14,-1.11 -191.03,-17.89 -159.38,-103.9 32.01,-86.14 303.51,-917.39 216.17,-1006.11 -87.28,-88.69 -135.03,40.51 -158.94,162.83 -24.2,122.44 -132.63,549.94 -146.27,644.51 -13.86,94.14 -73.51,127.41 -144.29,160.66 -127.37,59.8 -102.8,-179.54 -102.8,-179.54"
         style="fill:#231f20;fill-opacity:1;fill-rule:evenodd;stroke:none"
         transform="matrix(0.13333333,0,0,-0.13333333,0,767.18667)" />
      <path
         id="path7"
         d="m 6246.77,5066.97 c 0,0 117.16,138.78 111.85,224.73 -5.43,85.4 -10.47,170.93 -113.02,145.75 -102.41,-24.84 -133.03,-39.48 -120.75,-155.29 12.25,-116.07 9.12,-132.6 19.2,-177.56 28.14,-127.31 102.72,-37.63 102.72,-37.63 z m -311.8,-661.57 c -8.72,68.95 -110.73,1016.57 -92.03,1084.38 18.66,67.95 22.51,172.04 204.88,200.4 182.06,28.72 398.71,-27.85 443.05,-82.01 64.58,-79.29 227.19,-323.35 116.29,-493.26 -110.9,-169.56 -109.23,-177.07 -144.23,-201.53 -35.19,-24.08 -72.14,-72.28 -10.16,-168.13 62.04,-95.68 153.82,-145.24 181.83,-240.98 28.07,-95.39 54.76,-279.03 -70.84,-198.44 -124.99,80.29 -281.44,207.93 -302.99,273.84 -21.83,65.97 -129.59,190.23 -110.79,44.22 19.06,-145.66 110.57,-344.56 -41.78,-358.08 -152.64,-13.21 -173.23,139.59 -173.23,139.59"
         style="fill:#231f20;fill-opacity:1;fill-rule:evenodd;stroke:none"
         transform="matrix(0.13333333,0,0,-0.13333333,0,767.18667)" />
      <path
         id="path8"
         d="m 7522.88,4395.6 c 0,0 -378.84,-161.2 -443.15,-140.05 -64.27,21.59 -171.31,157.73 -176.98,288.34 -5.8,130.59 -43.79,940.08 -50.42,995.9 -6.49,55.76 38.73,184.6 130.04,184.02 91.56,-0.9 365.43,4.55 365.43,4.55 0,0 113.73,-40.35 114.86,-140.19 1.7,-99.62 35.4,-151.56 -69.07,-156.59 -104.04,-4.78 -231.52,55.33 -254.29,-55.27 -22.88,-110.66 -29.39,-188.98 38.27,-200.45 68.13,-11.38 259.23,24.83 273.88,-110.77 14.69,-135.54 28.09,-154.85 -67.67,-180.79 -95.91,-26.21 -238.75,-40.9 -230.73,-120.3 8.13,-79.38 -18.54,-141.6 90.83,-150.97 109.78,-9.27 210.1,43.59 254.39,-19.6 79.46,-112.18 49.21,-170.93 24.61,-197.83"
         style="fill:#231f20;fill-opacity:1;fill-rule:evenodd;stroke:none"
         transform="matrix(0.13333333,0,0,-0.13333333,0,767.18667)" />
      <path
         id="path9"
         d="m 8166.67,4491.53 c 0,0 32.96,1014.03 44.72,1069.45 12.06,55.28 119.94,168.96 207.12,82.32 54.69,-53.91 96.31,-111.07 117.34,-255.25 20.77,-144.29 37.76,-352.6 64.69,-402.35 27.26,-50.35 99.95,-95.32 96.24,67.61 -3.5,162.7 -31.34,539.69 -35.8,569.69 -4.42,29.88 38.19,152.41 141.06,127.57 102.87,-24.5 136.9,-73.7 123.8,-215.28 -12.43,-141.86 -60.71,-908.54 -49.52,-984.74 10.71,-75.94 0.41,-186.29 1.57,-194.2 5.01,-33.94 -5.93,-187.4 -172.61,-46.8 -166.71,139.97 -217.62,537.19 -225.33,590.05 -7.84,52.88 -65.48,222.64 -79.53,42.72 -13.72,-179.96 -10.68,-427.84 -2.59,-481.23 7.46,-53.43 46.99,-187.49 -80.47,-181.69 -127.2,5.6 -150.69,212.13 -150.69,212.13"
         style="fill:#231f20;fill-opacity:1;fill-rule:evenodd;stroke:none"
         transform="matrix(0.13333333,0,0,-0.13333333,0,767.18667)" />
      <path
         id="path10"
         d="m 7702.29,5490.21 21.52,-937.74 c 0,0 -9.67,-221.59 74.1,-263.22 83.65,-42.08 196.77,-63.1 178.57,232.43 -18.18,296 -8.65,882.56 -8.65,882.56 0,0 52.91,260.94 -91.72,289.66 -219.5,43.83 -173.82,-203.69 -173.82,-203.69"
         style="fill:#231f20;fill-opacity:1;fill-rule:evenodd;stroke:none"
         transform="matrix(0.13333333,0,0,-0.13333333,0,767.18667)" />
      <path
         id="path11"
         d="m 4848.87,2750.17 c 0,0 117.39,138.88 111.6,224.55 -5.41,85.69 -10.34,171.45 -112.76,146.25 -102.6,-25.39 -133.04,-39.8 -120.85,-155.51 12.27,-115.96 9.19,-132.28 19.26,-177.6 27.9,-127.14 102.75,-37.69 102.75,-37.69 z m -311.52,-661.63 c -8.97,69.48 -111.16,1016.53 -92.6,1084.74 18.67,67.52 22.61,171.9 205.03,200.68 182.13,28.51 398.93,-28.11 442.96,-82.47 65.02,-79.26 227.61,-323.47 116.31,-492.98 -110.59,-169.49 -109.5,-177.04 -144.11,-201.69 -34.99,-24.45 -71.58,-72.04 -10.03,-167.93 61.62,-96.13 153.92,-145.34 181.87,-240.75 27.91,-95.64 54.65,-279.42 -70.69,-198.86 -125.37,80.47 -282.18,207.86 -303.66,273.72 -21.31,66.51 -129.3,190.35 -110.37,44.32 19.04,-145.76 110.3,-344.5 -41.96,-358.08 -152.51,-13.23 -172.75,139.3 -172.75,139.3"
         style="fill:#231f20;fill-opacity:1;fill-rule:evenodd;stroke:none"
         transform="matrix(0.13333333,0,0,-0.13333333,0,767.18667)" />
      <path
         id="path12"
         d="m 4369.75,2028.7 c 0,0 -362.99,-199.41 -428.58,-184.5 -65.5,14.84 -181.87,140.1 -197.39,270.3 -15.4,129.87 -114.2,936.17 -125.03,991.19 -10.19,55.2 24.37,188.88 115.67,197.31 90.58,8.3 361.93,41.68 361.93,41.68 0,0 115.59,-29.16 124.25,-128.75 9.15,-99.87 46.51,-148.16 -56.44,-163.58 -103.07,-15.48 -234.22,31.69 -248.29,-80.9 -14.39,-112.97 -15.2,-192 53.17,-196.73 68.12,-4.56 255.14,51.18 279.86,-83.17 24.7,-134.69 39.48,-152.07 -53.29,-187.81 -93.23,-35.93 -234.03,-64.92 -219.97,-143.29 14.09,-78.81 -7.51,-143.83 101.96,-141.92 109.13,1.6 204.74,64.41 253.25,5.83 86.85,-104.57 61.69,-165.77 38.9,-195.66"
         style="fill:#231f20;fill-opacity:1;fill-rule:evenodd;stroke:none"
         transform="matrix(0.13333333,0,0,-0.13333333,0,767.18667)" />
      <path
         id="path13"
         d="m 43.8242,2086.25 c 0,0 415.1098,-833.82 470.7388,-925.41 55.429,-91.79 113.019,-145.57 170.917,-137.54 57.754,7.89 178.266,-18.73 97.493,230.64 -56.344,172.48 -99.703,268.38 -84.946,311.17 14.934,42.31 48.489,111.22 82.946,18.81 33.957,-92.43 102.89,-337.07 276.547,-358.16 173.29,-20.98 200.02,71.7 113.05,327.45 -87.11,256.3 -170.859,754.48 -180.23,857.92 -9.086,104.11 -54.309,270.75 -126.035,238.54 -71.711,-32.09 -149.489,-47.18 -112.867,-228.43 36.449,-181.5 113.054,-467.51 138.539,-536.81 25.695,-69.13 16.257,-208.38 -18.551,-134.2 -35.071,74.35 -186.746,443.3 -203.731,489.89 -16.984,45.88 -110.336,129.8 -180.718,98.51 -70.528,-31.81 -108.329,-32.12 -70.61,-175.45 37.571,-143.3 102.406,-400.38 131.528,-458.81 29.339,-58.88 6.421,-202.22 -60.231,-62.94 -66.672,138.99 -212.801,494.24 -232.023,566.5 -19.039,72.63 -63.008,88.15 -159.0082,63.47 -180.4766,-46.07 -52.8086,-185.15 -52.8086,-185.15"
         style="fill:#231f20;fill-opacity:1;fill-rule:evenodd;stroke:none"
         transform="matrix(0.13333333,0,0,-0.13333333,0,767.18667)" />
      <path
         id="path14"
         d="m 1596.6,2325.1 c 5.98,-78.15 -0.93,-223.34 83.8,-453.59 69.98,-188.77 175.3,-332.82 206.75,-68.91 31.59,264.07 -121.31,583.88 -161.7,643.24 C 1594.13,2637.15 1596.6,2325.1 1596.6,2325.1 Z m -227.52,-387.79 c 34.06,-92.18 185.25,-542.74 482.62,-508.16 297.45,34.21 362.02,410.59 295.01,695.01 -67.18,284.09 -260.26,650.96 -458.3,689.61 -139.27,27.71 -247.49,15.26 -323.19,-108.6 -93.97,-153.29 -64.57,-314.99 -54.4,-445.08 9.89,-130.24 58.26,-322.78 58.26,-322.78"
         style="fill:#231f20;fill-opacity:1;fill-rule:evenodd;stroke:none"
         transform="matrix(0.13333333,0,0,-0.13333333,0,767.18667)" />
      <path
         id="path15"
         d="m 2178.13,2837.19 c 0,0 103.07,-769.58 184.08,-947.41 81.03,-177.9 61.49,-330.17 288.23,-228.66 226.88,101.66 204.46,100.78 204.46,100.78 0,0 120.92,62.97 60.76,143.71 -60.33,80.7 -97.53,83.43 -177.31,72.98 -79.69,-9.96 -121.76,-19.87 -137.19,63.18 -15.44,82.67 -155.4,690.8 -153.15,763.9 1.95,72.33 -52.06,179.09 -150.05,200.43 -148.35,32.42 -119.83,-168.91 -119.83,-168.91"
         style="fill:#231f20;fill-opacity:1;fill-rule:evenodd;stroke:none"
         transform="matrix(0.13333333,0,0,-0.13333333,0,767.18667)" />
      <path
         id="path16"
         d="m 2880.13,2964.65 c 0,0 103.4,-769.61 184.37,-947.32 80.88,-177.82 61.09,-330.48 288.28,-228.8 226.7,101.82 204.2,100.41 204.2,100.41 0,0 121.07,63.28 60.84,144.02 -60.08,80.92 -97.87,83.51 -177.73,73.12 -79.52,-9.95 -121.48,-19.95 -137.03,62.87 -15.48,83.17 -155.01,691 -152.91,763.78 2.14,72.69 -51.98,179.59 -149.94,200.84 -148.87,32.27 -120.08,-168.92 -120.08,-168.92"
         style="fill:#231f20;fill-opacity:1;fill-rule:evenodd;stroke:none"
         transform="matrix(0.13333333,0,0,-0.13333333,0,767.18667)" />
      <path
         id="path17"
         d="m 5839.82,2970.79 c 0,0 1.78,-154.11 24.73,-215.97 22.87,-61.43 51.86,-148.07 -19.02,-162.2 -70.69,-13.72 -159.08,-0.81 -127.74,120.8 31.21,121.62 55.25,240.67 55.25,240.67 15.44,51.3 46.07,93.77 66.78,16.7 z m -387.77,-805.92 c 0,0 137.32,1019.7 149.67,1087.93 12.99,68.38 18.85,213.27 161.4,196.72 143.02,-16.98 234.31,23.76 274.35,-208.18 40.51,-231.79 103.64,-670.6 129.73,-783.2 26.56,-112.51 117.56,-313.99 16.25,-368.37 -101.15,-54.66 -142.05,-26.31 -180.94,98.57 -38.16,124.82 -70.32,191.22 -70.32,191.22 0,0 -179.13,35.48 -227.35,-101.4 -47.99,-137.04 -34.65,-194.08 -23.32,-224.69 11.75,-31.08 -27.43,-95.97 -91.75,-77.17 -144.74,42.8 -137.72,188.57 -137.72,188.57"
         style="fill:#231f20;fill-opacity:1;fill-rule:evenodd;stroke:none"
         transform="matrix(0.13333333,0,0,-0.13333333,0,767.18667)" />
      <path
         id="path18"
         d="m 6402.12,3144.22 c 0,0 -23.49,-453.12 -18.87,-589.16 4.46,-135.92 10.38,-285.03 133.73,-421.14 123.26,-136.18 249.78,-200.68 289.78,-192.01 40.3,8.91 239.12,57.83 262.97,318.56 24.45,260.48 24.91,739.56 29.59,801.87 4.36,62.67 15.8,233.76 -93.63,264 -109.79,30.16 -212.45,63.4 -203.28,-58.5 9.58,-121.47 30.28,-695.77 5.11,-809.57 -24.87,-113.92 -24.35,-281.68 -119.31,-184.14 -95.38,97.26 -52.82,319.46 -37.67,395.96 14.96,76.69 26.78,439.1 26.78,439.1 0,0 22.97,119.38 -48.87,164.47 -71.61,45.36 -187.72,98.57 -207.09,17.09 -19.68,-81.12 -19.24,-146.53 -19.24,-146.53"
         style="fill:#231f20;fill-opacity:1;fill-rule:evenodd;stroke:none"
         transform="matrix(0.13333333,0,0,-0.13333333,0,767.18667)" />
      <path
         id="path19"
         d="m 7261.15,2495.53 c -20.03,-83.97 30.14,-112.67 109.34,-114.31 155.28,-3.5 190.37,-8.09 190.37,-8.09 0,0 92.56,-5.24 79.18,63.49 -13.6,68.45 -83.9,99.59 -177.06,116.46 -92.88,17.14 -181.33,26.01 -201.83,-57.55"
         style="fill:#231f20;fill-opacity:1;fill-rule:evenodd;stroke:none"
         transform="matrix(0.13333333,0,0,-0.13333333,0,767.18667)" />
      <path
         id="path20"
         d="m 8059.95,2144.26 c -31.69,-6.79 -39.73,55.82 -31.89,97.9 59.92,323.91 319.1,83.49 206.55,-14.8 -42.66,-36.99 -119.8,-71.48 -174.66,-83.1 z m 87.53,543.09 c -32.03,-17.55 -53.71,45.24 -54.33,92.49 -4.57,359.11 317.7,191.78 219.78,51.42 -36.68,-52.82 -110.55,-113.91 -165.45,-143.91 z m -313.08,323.8 c 0,0 -57.37,-697.6 -51.63,-816.5 6.06,-118.52 18.94,-306.58 142.98,-344.2 124.39,-37.72 438.9,70.63 525.95,193.51 87.1,123.13 48.1,271.42 -17.22,330.82 -65.76,59.05 -108.65,91.26 -94.08,125.83 15.03,34.3 220.64,124.84 222.07,269.92 1.68,145.5 -101.03,386.37 -184.3,423.66 -83.02,37.5 -360.24,83.78 -360.24,83.78 0,0 -154.57,17.61 -171.76,-95.59 -17.6,-113.3 -11.77,-171.23 -11.77,-171.23"
         style="fill:#231f20;fill-opacity:1;fill-rule:evenodd;stroke:none"
         transform="matrix(0.13333333,0,0,-0.13333333,0,767.18667)" />
      <path
         id="path21"
         d="m 9237.57,2569.92 c 0,0 -21.35,-150.59 -8.06,-215.4 13.38,-64.88 29.29,-155.67 -43.11,-154.99 -72.48,1.08 -158.21,31.49 -109.21,143.62 48.9,112.78 91.35,223.67 91.35,223.67 23.21,47.38 59.9,82.59 69.03,3.1 z m -506.3,-708.53 c 0,0 288.85,967.74 311.91,1032.03 22.94,64.3 50.54,204.12 190.06,159.24 139.01,-45.09 236.27,-23.82 241.07,-258.25 5.39,-234.65 2.12,-675.63 11.4,-790.72 9.54,-114.94 69.57,-330.21 -39.41,-362.84 -108.55,-32.78 -144.93,2.83 -164.6,132.63 -19.42,129.84 -41.55,200.88 -41.55,200.88 0,0 -172.08,70.49 -240.74,-53.01 -68.09,-124.19 -63.7,-182.38 -56.83,-215.1 6.75,-31.95 -41.77,-87.52 -102.57,-56.26 -137.6,70.92 -108.74,211.4 -108.74,211.4"
         style="fill:#231f20;fill-opacity:1;fill-rule:evenodd;stroke:none"
         transform="matrix(0.13333333,0,0,-0.13333333,0,767.18667)" />
      <path
         id="path22"
         d="m 9181.38,3226.58 c -17.08,46.15 -8.83,105.92 30.11,123.29 38.9,17.53 93.67,-14.25 110.63,-60.42 16.98,-45.7 -0.83,-97.34 -39.4,-114.51 -39,-17.22 -84.46,5.89 -101.34,51.64"
         style="fill:#231f20;fill-opacity:1;fill-rule:evenodd;stroke:none"
         transform="matrix(0.13333333,0,0,-0.13333333,0,767.18667)" />
      <path
         id="path23"
         d="m 9445.36,3156.97 c -17.05,45.88 -8.74,105.85 30.29,123.18 38.56,17.72 93.35,-14.12 110.32,-60.32 17.01,-45.76 -0.78,-97.11 -39.46,-114.51 -39.14,-17.53 -84.34,5.73 -101.15,51.65"
         style="fill:#231f20;fill-opacity:1;fill-rule:evenodd;stroke:none"
         transform="matrix(0.13333333,0,0,-0.13333333,0,767.18667)" />
      <path
         id="path24"
         d="m 10440.1,1699.28 c 9.4,50.93 -8.9,98.22 -45.3,129.62 -220.5,191.62 -145.6,-304.66 -388.7,-164.43 -171.97,99 63.1,699.1 151.2,771.41 185.6,153.23 -14.7,-156.8 163,-302.67 206.1,-169.28 219.9,402.38 80.8,545.98 -385.2,397.27 -735.07,-419.48 -690.5,-768.13 108.47,-849.93 684.6,-499.31 729.5,-211.78"
         style="fill:#231f20;fill-opacity:1;fill-rule:evenodd;stroke:none"
         transform="matrix(0.13333333,0,0,-0.13333333,0,767.18667)" />
      <path
         id="path25"
         d="m 10571.2,1503.57 224.6,989 c 0,0 9,157.62 105.2,107.9 96.2,-49.34 99.5,-57.21 99.5,-57.21 0,0 86.1,-28.88 38.2,-177.32 -47.3,-148.57 -79.6,-322.25 -79.6,-322.25 0,0 -16.4,-58.18 22.3,-82.59 38.6,-23.96 91.5,-44.62 91.5,-44.62 0,0 58.7,-34.77 76.6,91.19 18.1,126.12 77.9,452.21 77.9,452.21 0,0 4.2,90.98 89.8,56.11 85.9,-35.08 136.9,-78.71 136.9,-78.71 0,0 51.6,-37.38 31.2,-135.53 -20,-98.27 -257.7,-1182.2 -257.7,-1182.2 0,0 -20,-90.28 -123.6,-52.37 -90,33.01 -92.2,38.5 -92.2,38.5 0,0 -90,61.11 -41.7,207.2 48.5,146.32 70.4,276.2 70.4,276.2 0,0 23.3,68.25 -51.1,101.85 -74.5,33.63 -103,-49.28 -103,-49.28 l -87.4,-389.46 c 0,0 -19.4,-123.38 -108.9,-77.65 -89.2,46.39 -121.2,146.79 -121.2,146.79 -12.4,61.27 -11.8,122.12 2.3,182.24"
         style="fill:#231f20;fill-opacity:1;fill-rule:evenodd;stroke:none"
         transform="matrix(0.13333333,0,0,-0.13333333,0,767.18667)" />
      <path
         id="path26"
         d="m 527.789,4621.24 c 0,0 345.594,151.15 369.859,158.5 24.172,7.6 143.912,30.87 178.232,-85.9 33.98,-117.23 -10.51,-157.95 -70.87,-188.62 -60.596,-30.74 -98.752,-47.79 -98.752,-47.79 0,0 245.912,-799.08 268.432,-900.02 22.15,-100.78 51.8,-165.15 -40.1,-206.71 -92.32,-40.89 -100.3,-27.22 -100.3,-27.22 0,0 -59.97,20.63 -95.317,117.79 -36.004,96.83 -247.196,736.57 -264.758,816.73 -17.531,80.42 -38.352,127.55 -38.352,127.55 0,0 -57.375,-41.22 -135.508,-32.36 -77.812,9.02 -118.679,113.16 -104.98,155.52 20.535,65.67 132.414,112.53 132.414,112.53"
         style="fill:#231f20;fill-opacity:1;fill-rule:evenodd;stroke:none"
         transform="matrix(0.13333333,0,0,-0.13333333,0,767.18667)" />
      <path
         id="path27"
         d="M 680.488,294.332 C 2165.55,924.082 4648.87,1263.24 5418.99,1296.86 c 2200.34,97.1 3896,-329.821 5578.61,-1066.981 248.6,-108.82 172.6,-310.1993 -116.9,-195.797 C 8895.51,819.352 7625.67,1160.45 5471.82,1053.25 4330.84,996.699 3216.56,756.691 2103.75,502.93 1679.98,406.02 843.898,88.4805 481.254,48.2813 424.754,41.9492 277.219,-4.03125 323.945,75.3711 359.293,135.68 615.57,266.461 680.488,294.332"
         style="fill:#231f20;fill-opacity:1;fill-rule:evenodd;stroke:none"
         transform="matrix(0.13333333,0,0,-0.13333333,0,767.18667)" />
    </g>
  </g>
</svg>
