<svg xmlns="http://www.w3.org/2000/svg" version="1.1" xmlns:xlink="http://www.w3.org/1999/xlink" width="1000" height="1000"><style>
    #light-icon {
      display: inline;
    }
    #dark-icon {
      display: none;
    }

    @media (prefers-color-scheme: dark) {
      #light-icon {
        display: none;
      }
      #dark-icon {
        display: inline;
      }
    }
  </style><g id="light-icon"><svg xmlns="http://www.w3.org/2000/svg" version="1.1" xmlns:xlink="http://www.w3.org/1999/xlink" width="1000" height="1000"><g clip-path="url(#SvgjsClipPath1099)"><rect width="1000" height="1000" fill="#ffd700"></rect><g transform="matrix(13.227512935901391,0,0,13.227512935901391,200,200)"><svg xmlns="http://www.w3.org/2000/svg" version="1.1" xmlns:xlink="http://www.w3.org/1999/xlink" width="45.360001" height="45.360001"><svg version="1.1" id="svg1" width="45.360001" height="45.360001" viewBox="0 0 45.360001 45.360001" sodipodi:docname="SM2026_3_Symbol_schwarz.eps" inkscape:export-filename="../../home/cavivo/Documents/repos/privat/sm2026wollerau.ch/static/images/icon-black.svg" inkscape:export-xdpi="96" inkscape:export-ydpi="96" xmlns:inkscape="http://www.inkscape.org/namespaces/inkscape" xmlns:sodipodi="http://sodipodi.sourceforge.net/DTD/sodipodi-0.dtd" xmlns="http://www.w3.org/2000/svg" xmlns:svg="http://www.w3.org/2000/svg">
  <defs id="defs1"><clipPath id="SvgjsClipPath1099"><rect width="1000" height="1000" x="0" y="0" rx="350" ry="350"></rect></clipPath></defs>
  <sodipodi:namedview id="namedview1" pagecolor="#ffffff" bordercolor="#000000" borderopacity="0.25" inkscape:showpageshadow="2" inkscape:pageopacity="0.0" inkscape:pagecheckerboard="0" inkscape:deskcolor="#d1d1d1">
    <inkscape:page x="0" y="0" inkscape:label="1" id="page1" width="45.360001" height="45.360001" margin="0" bleed="0"></inkscape:page>
  </sodipodi:namedview>
  <g id="g1" inkscape:groupmode="layer" inkscape:label="1">
    <g id="group-R5">
      <path id="path2" d="m 164.41,22.6758 h 11.3398 v 198.426 H 164.41 Z" style="fill:#231f20;fill-opacity:1;fill-rule:evenodd;stroke:none" transform="matrix(0.13333333,0,0,-0.13333333,0,45.36)"></path>
      <path id="path3" d="m 22.6758,175.75 h 136.066 v 11.3359 H 22.6758 Z" style="fill:#231f20;fill-opacity:1;fill-rule:evenodd;stroke:none" transform="matrix(0.13333333,0,0,-0.13333333,0,45.36)"></path>
      <path id="path4" d="m 181.418,187.086 h 96.379 v 34.016 h 11.34 V 187.086 175.75 H 181.418 v 11.336" style="fill:#231f20;fill-opacity:1;fill-rule:evenodd;stroke:none" transform="matrix(0.13333333,0,0,-0.13333333,0,45.36)"></path>
      <path id="path5" d="m 170.078,294.805 17.008,-4.567 12.445,-12.441 4.563,-17.008 -4.563,-17.008 -12.445,-12.445 -17.008,-4.563 -17.008,4.563 -12.441,12.445 -4.566,17.008 4.566,17.008 12.441,12.441 17.008,4.567 m 0,-56.696 11.34,3.036 8.305,8.304 3.035,11.34 -3.035,11.34 -8.305,8.305 -11.34,3.031 -11.336,-3.031 -8.308,-8.305 -3.032,-11.34 3.032,-11.34 8.308,-8.304 11.336,-3.036" style="fill:#231f20;fill-opacity:1;fill-rule:evenodd;stroke:none" transform="matrix(0.13333333,0,0,-0.13333333,0,45.36)"></path>
      <path id="path6" d="m 311.813,226.773 h -56.696 l -14.172,3.797 -10.375,10.375 -3.797,14.172 v 56.696 l 3.797,14.171 10.375,10.375 14.172,3.797 h 56.696 l 14.171,-3.797 10.375,-10.375 3.801,-14.171 v -56.696 l -3.801,-14.172 -10.375,-10.375 -14.171,-3.797" style="fill:#231f20;fill-opacity:1;fill-rule:evenodd;stroke:none" transform="matrix(0.13333333,0,0,-0.13333333,0,45.36)"></path>
      <path id="path7" d="m 105.363,113.387 53.379,53.375 V 150.719 L 30.6992,22.6758 l 3.9961,-3.9961 67.3517,67.3516 11.34,11.3398 V 0 H 28.3477 L 14.1719,3.79688 3.80078,14.1719 0,28.3477 v 85.0393 h 105.363" style="fill:#231f20;fill-opacity:1;fill-rule:evenodd;stroke:none" transform="matrix(0.13333333,0,0,-0.13333333,0,45.36)"></path>
      <path id="path8" d="m 0,311.813 3.80078,14.171 10.37112,10.375 14.1758,3.797 H 113.387 V 226.773 H 0 v 85.04" style="fill:#231f20;fill-opacity:1;fill-rule:evenodd;stroke:none" transform="matrix(0.13333333,0,0,-0.13333333,0,45.36)"></path>
      <path id="path9" d="M 340.16,28.3477 336.359,14.1719 325.984,3.79688 311.813,0 h -85.04 V 113.387 H 340.16 V 28.3477" style="fill:#231f20;fill-opacity:1;fill-rule:evenodd;stroke:none" transform="matrix(0.13333333,0,0,-0.13333333,0,45.36)"></path>
    </g>
  </g>
</svg></svg></g></g></svg></g><g id="dark-icon"><svg xmlns="http://www.w3.org/2000/svg" version="1.1" xmlns:xlink="http://www.w3.org/1999/xlink" width="1000" height="1000"><g><g transform="matrix(22.045854893168986,0,0,22.045854893168986,0,0)"><svg xmlns="http://www.w3.org/2000/svg" version="1.1" xmlns:xlink="http://www.w3.org/1999/xlink" width="45.360001" height="45.360001"><svg version="1.1" id="svg1" width="45.360001" height="45.360001" viewBox="0 0 45.360001 45.360001" sodipodi:docname="SM2026_3_Symbol_schwarz.eps" inkscape:export-filename="../../home/cavivo/Documents/repos/privat/sm2026wollerau.ch/static/images/icon-black.svg" inkscape:export-xdpi="96" inkscape:export-ydpi="96" xmlns:inkscape="http://www.inkscape.org/namespaces/inkscape" xmlns:sodipodi="http://sodipodi.sourceforge.net/DTD/sodipodi-0.dtd" xmlns="http://www.w3.org/2000/svg" xmlns:svg="http://www.w3.org/2000/svg">
  <defs id="defs1"></defs>
  <sodipodi:namedview id="namedview1" pagecolor="#ffffff" bordercolor="#000000" borderopacity="0.25" inkscape:showpageshadow="2" inkscape:pageopacity="0.0" inkscape:pagecheckerboard="0" inkscape:deskcolor="#d1d1d1">
    <inkscape:page x="0" y="0" inkscape:label="1" id="page1" width="45.360001" height="45.360001" margin="0" bleed="0"></inkscape:page>
  </sodipodi:namedview>
  <g id="g1" inkscape:groupmode="layer" inkscape:label="1">
    <g id="group-R5">
      <path id="path2" d="m 164.41,22.6758 h 11.3398 v 198.426 H 164.41 Z" style="fill:#231f20;fill-opacity:1;fill-rule:evenodd;stroke:none" transform="matrix(0.13333333,0,0,-0.13333333,0,45.36)"></path>
      <path id="path3" d="m 22.6758,175.75 h 136.066 v 11.3359 H 22.6758 Z" style="fill:#231f20;fill-opacity:1;fill-rule:evenodd;stroke:none" transform="matrix(0.13333333,0,0,-0.13333333,0,45.36)"></path>
      <path id="path4" d="m 181.418,187.086 h 96.379 v 34.016 h 11.34 V 187.086 175.75 H 181.418 v 11.336" style="fill:#231f20;fill-opacity:1;fill-rule:evenodd;stroke:none" transform="matrix(0.13333333,0,0,-0.13333333,0,45.36)"></path>
      <path id="path5" d="m 170.078,294.805 17.008,-4.567 12.445,-12.441 4.563,-17.008 -4.563,-17.008 -12.445,-12.445 -17.008,-4.563 -17.008,4.563 -12.441,12.445 -4.566,17.008 4.566,17.008 12.441,12.441 17.008,4.567 m 0,-56.696 11.34,3.036 8.305,8.304 3.035,11.34 -3.035,11.34 -8.305,8.305 -11.34,3.031 -11.336,-3.031 -8.308,-8.305 -3.032,-11.34 3.032,-11.34 8.308,-8.304 11.336,-3.036" style="fill:#231f20;fill-opacity:1;fill-rule:evenodd;stroke:none" transform="matrix(0.13333333,0,0,-0.13333333,0,45.36)"></path>
      <path id="path6" d="m 311.813,226.773 h -56.696 l -14.172,3.797 -10.375,10.375 -3.797,14.172 v 56.696 l 3.797,14.171 10.375,10.375 14.172,3.797 h 56.696 l 14.171,-3.797 10.375,-10.375 3.801,-14.171 v -56.696 l -3.801,-14.172 -10.375,-10.375 -14.171,-3.797" style="fill:#231f20;fill-opacity:1;fill-rule:evenodd;stroke:none" transform="matrix(0.13333333,0,0,-0.13333333,0,45.36)"></path>
      <path id="path7" d="m 105.363,113.387 53.379,53.375 V 150.719 L 30.6992,22.6758 l 3.9961,-3.9961 67.3517,67.3516 11.34,11.3398 V 0 H 28.3477 L 14.1719,3.79688 3.80078,14.1719 0,28.3477 v 85.0393 h 105.363" style="fill:#231f20;fill-opacity:1;fill-rule:evenodd;stroke:none" transform="matrix(0.13333333,0,0,-0.13333333,0,45.36)"></path>
      <path id="path8" d="m 0,311.813 3.80078,14.171 10.37112,10.375 14.1758,3.797 H 113.387 V 226.773 H 0 v 85.04" style="fill:#231f20;fill-opacity:1;fill-rule:evenodd;stroke:none" transform="matrix(0.13333333,0,0,-0.13333333,0,45.36)"></path>
      <path id="path9" d="M 340.16,28.3477 336.359,14.1719 325.984,3.79688 311.813,0 h -85.04 V 113.387 H 340.16 V 28.3477" style="fill:#231f20;fill-opacity:1;fill-rule:evenodd;stroke:none" transform="matrix(0.13333333,0,0,-0.13333333,0,45.36)"></path>
    </g>
  </g>
</svg></svg></g></g></svg></g></svg>