<?xml version="1.0" encoding="utf-8"?>
<!-- Generator: Adobe Illustrator 13.0.2, SVG Export Plug-In . SVG Version: 6.00 Build 14948)  -->
<!DOCTYPE svg PUBLIC "-//W3C//DTD SVG 1.0//EN" "http://www.w3.org/TR/2001/REC-SVG-20010904/DTD/svg10.dtd">
<svg version="1.0" id="Ebene_1" xmlns="http://www.w3.org/2000/svg" xmlns:xlink="http://www.w3.org/1999/xlink" x="0px" y="0px"
	 width="557.584px" height="593.525px" viewBox="0 0 557.584 593.525" enable-background="new 0 0 557.584 593.525"
	 xml:space="preserve">
<path d="M539.751,2.562L539.162,0l-2.407,1.059c-68.01,29.925-131.251,42.693-211.458,42.693
	c-80.211,0-143.453-12.768-211.464-42.693L111.427,0l-0.589,2.562C101.383,43.648,95.632,84.76,93.716,124.8
	c-2.721-0.265-5.475-0.416-8.264-0.416C38.333,124.384,0,162.721,0,209.844s38.333,85.461,85.452,85.461
	c8.113,0,15.953-1.164,23.393-3.291c31.724,134.393,110.121,243.997,215.417,300.951l1.035,0.56l1.035-0.56
	c84.096-45.49,152.348-125.848,192.183-226.271C562,257.073,569.343,131.158,539.751,2.562z"/>
<path fill="#FFD500" d="M536.061,6.083c-67.668,29.415-130.879,42.019-210.764,42.019c-79.884,0-143.095-12.604-210.764-42.019
	C105.441,46.247,99.971,86.134,98.1,125.325c41.151,6.131,72.821,41.692,72.821,84.519c0,37.559-24.368,69.514-58.117,80.947
	c6.021,25.458,13.79,50.277,23.319,74.299c39.292,99.055,106.459,178.346,189.174,223.452
	c82.715-45.106,149.883-124.397,189.174-223.452c25.786-65.003,38.763-135.798,38.763-209.503
	C553.233,106.75,547.504,56.634,536.061,6.083z"/>
<path d="M521.346,30.336C459.745,54.26,399.281,64.929,325.297,64.929c-73.982,0-134.445-10.669-196.045-34.593l-2.429-0.943
	l-0.494,2.559c-5.066,26.26-8.589,52.67-10.474,78.499l-0.123,1.693l1.613,0.53c42.11,13.856,70.403,52.906,70.403,97.17
	c0,37.508-20.542,71.973-53.611,89.942l-1.506,0.82l0.444,1.655c5.221,19.467,11.51,38.519,18.691,56.622
	c36.186,91.224,97.424,165.674,172.432,209.636l1.101,0.644l1.1-0.644c75.008-43.962,136.245-118.412,172.433-209.636
	c24.932-62.855,37.574-131.255,37.574-203.299c0-40.289-4.084-81.885-12.137-123.633l-0.493-2.559L521.346,30.336z"/>
<path fill="#E2001A" d="M325.299,564.086c-73.669-43.557-133.838-116.932-169.488-206.805
	c-6.924-17.456-12.993-35.809-18.084-54.561c33.567-18.957,54.373-54.358,54.373-92.877c0-45.563-28.781-85.778-71.762-100.693
	c1.836-24.312,5.14-49.124,9.811-73.833c61.273,23.458,121.592,33.96,195.149,33.96L325.299,564.086z"/>
<path fill="#172983" d="M325.297,69.279c73.561,0,133.883-10.503,195.161-33.963c7.679,40.624,11.597,81.074,11.597,120.27
	c0,71.492-12.538,139.352-37.268,201.697c-35.651,89.873-95.82,163.248-169.488,206.805L325.297,69.279z"/>
<path fill="#FFD500" d="M68.079,277.732c2.746-3.44,4.76-8.248,4.76-13.815c0-4.46-1.355-9.414-4.603-14.536
	c-30.534-3.813-51.987-27.42-59.642-65.377c-2.738,8.123-4.244,16.807-4.244,25.841c0,32.811,19.591,61.112,47.679,73.874
	C57.322,285.555,63.725,283.19,68.079,277.732z"/>
<path fill="#FFD500" d="M35.35,160.845c2.894,7.387,10.836,14.923,24.469,14.354c18.559-24.539,49.708-31.339,86.388-19.016
	c-14.874-16.817-36.59-27.45-60.755-27.45c-17.704,0-34.089,5.72-47.44,15.385C33.859,147.854,32.8,154.335,35.35,160.845z"/>
<path fill="#FFD500" d="M62.946,178.205c-1.361,8.568-0.296,15.335,3.199,20.097c3.511,4.784,9.562,7.782,18.409,9.187
	c6.399-7.9,12.974-12.138,20.07-12.919c6.566-0.725,13.484,1.615,20.59,6.937c7.444-12.917,19.354-16.216,28.366-14.857
	c4.24,0.639,7.939,2.264,10.813,4.584c-2.461-10.438-6.94-20.1-13.009-28.556c-0.035-0.011-0.07-0.016-0.104-0.029
	C113.465,147.832,81.311,153.511,62.946,178.205z"/>
<path fill="#FFD500" d="M69.305,245.161c8.105-3.107,13.435-7.415,15.811-12.824c2.388-5.438,1.956-12.186-1.262-20.559
	c-10.024-1.596-16.997-5.153-21.215-10.902c-3.905-5.32-5.316-12.486-4.264-21.288c-14.928,0.015-23.747-8.663-27.074-17.157
	c-1.551-3.957-1.997-7.937-1.444-11.559c-7.607,7.178-13.825,15.802-18.219,25.435c0.01,0.044,0.027,0.084,0.033,0.129
	C17.743,216.596,38.739,241.604,69.305,245.161z"/>
<path fill="#FFD500" d="M152.93,190.951c-7.837-1.182-18.311,1.962-24.628,14.041c3.343,7.931,5.037,16.017,5.037,24.119
	c0,20.866-10.938,41.796-31.866,60.249c37.082-7.458,65.099-40.273,65.099-79.515c0-2.627-0.137-5.224-0.382-7.788
	C165.224,196.459,159.922,192.005,152.93,190.951z"/>
<path fill="#FFD500" d="M124.117,206.174c-6.746-5.466-13.144-7.929-19.018-7.281c-5.901,0.65-11.526,4.366-17.166,11.332
	c3.652,9.501,4.038,17.321,1.165,23.861c-2.654,6.044-8.156,10.851-16.309,14.342c7.479,12.915,4.378,24.889-1.31,32.017
	c-2.675,3.352-5.931,5.741-9.378,7.067c7.399,2.229,15.235,3.442,23.351,3.442c2.653,0,5.274-0.137,7.862-0.387
	c0.038-0.035,0.069-0.074,0.109-0.107C125.148,265.119,136.306,234.427,124.117,206.174z"/>
<path d="M443.412,281.123c22.939-22.876,31.263-46.545,31.263-66.119c0-8.631-1.609-16.465-4.283-23.083
	c-8.178-20.244-26.992-32.82-49.101-32.82h-71.116c0,0-0.021,48.127-0.022,52.121c-3.829,0-44.884,0-48.713,0
	c0-4.054,0-86.089,0-90.144c4.181,0,110.087,0,110.087,0V94.881h-2.175H275.25c0,0,0,112.152,0,116.341
	c-16.073,0.006-47.453,0.558-68.92,22.013c-14.786,14.777-22.283,37.004-22.283,66.063c0,39.215,16.279,81.487,47.079,122.244
	c29.654,39.243,71.214,75.263,120.186,104.163l3.281,1.937V496.77l-1.104-0.624c-38.636-21.896-74.298-52.921-100.417-87.36
	c-28.097-37.047-42.948-74.773-42.948-109.104c0-20.998,5.323-36.918,15.823-47.318c15.524-15.378,38.336-15.161,49.298-15.057
	h0.004c0,4.212,0,169.789,0,169.789h26.19c0,0-0.043-165.489-0.045-169.729c3.832,0,44.928,0,48.756,0
	c0,4.271,0.023,241.86,0.023,241.86l3.105-1.472c92.571-43.837,116.414-91.063,120.114-122.963c0.368-3.169,0.55-6.332,0.55-9.477
	C473.943,320.84,462.89,297.533,443.412,281.123z M376.522,237.369c3.781,0.005,31.832,0.045,31.832,0.045v-26.193
	c0,0-28.053,0-31.83,0c0.003-3.465,0.017-22.64,0.02-26.1c3.928,0,41.915,0,41.915,0c14.782,0,25.733,8.769,28.581,22.884
	c0.474,2.343,0.714,4.802,0.714,7.355c0,23.931-21.259,56.051-71.231,77.993C376.522,287.569,376.522,241.193,376.522,237.369z
	 M446.447,351.619c-2.856,28.638-29.546,59.793-69.882,81.943c-0.006-6.816-0.085-105.837-0.087-108.367
	c9.82-4.968,31.256-16.441,45.56-25.305c16.357,13.757,24.68,29.309,24.68,46.341C446.718,348.01,446.628,349.807,446.447,351.619z"
	/>
<path fill="#FFD500" d="M438.898,282.918l-1.936-1.545l1.781-1.721c23.258-22.454,31.588-45.659,31.588-64.646
	c0-8.033-1.491-15.311-3.975-21.458c-7.612-18.847-24.46-30.099-45.066-30.099c0,0-62.69,0-66.769,0
	c-0.002,3.993-0.023,52.121-0.023,52.121H297.09v-98.844c0,0,105.906,0,110.087,0c0-3.137,0-14.359,0-17.496
	c-4.138,0-123.44,0-127.578,0c0,4.188,0.001,116.34,0.001,116.34l-3.057,0c-15.048-0.008-46.361-0.025-67.138,20.741
	c-13.94,13.932-21.008,35.124-21.008,62.985c0,38.261,15.976,79.625,46.199,119.622c28.641,37.9,68.607,72.736,115.646,101.006
	c0-5.311,0-18.785,0-20.658c-38.711-22.145-74.419-53.285-100.636-87.853c-28.674-37.81-43.832-76.445-43.832-111.732
	c0-22.202,5.757-39.161,17.112-50.409c16.813-16.655,41.752-16.418,52.401-16.317l4.313,0.028c0,0,0,165.521,0,169.761
	c3.137,0,14.353,0,17.491,0c-0.001-4.241-0.045-169.729-0.045-169.729h57.456c0,0,0.021,232.551,0.022,239.3
	c88.158-42.545,111.018-87.579,114.55-118.025c0.348-2.997,0.52-5.991,0.52-8.966C469.593,321.388,458.502,298.552,438.898,282.918z
	 M372.197,180.771h2.173h44.089c16.979,0,29.564,10.105,32.847,26.373c5.513,27.326-15.884,66.239-76.114,91.575l-3.019,1.269
	v-66.975c0,0,28.051,0.04,31.832,0.045c0-3.14,0-14.352,0-17.488c-3.776,0-31.834,0-31.834,0L372.197,180.771z M450.775,352.05
	c-3.122,31.296-31.297,63.865-75.367,87.123l-3.188,1.683l-0.095-118.344l1.204-0.602c9.399-4.7,33.063-17.315,47.778-26.563
	l1.323-0.83l1.209,0.987C443.469,311.684,452.852,331.238,450.775,352.05z"/>
</svg>
