<?xml version="1.0" encoding="UTF-8" standalone="no"?>
<svg
   width="860.3075"
   height="860.78516"
   version="1.1"
   id="svg1"
   sodipodi:docname="xbox-logo.svg"
   inkscape:export-filename="xbox-logo.svg"
   inkscape:export-xdpi="1112.7273"
   inkscape:export-ydpi="1112.7273"
   inkscape:version="1.4.2 (ebf0e940d0, 2025-05-08)"
   xmlns:inkscape="http://www.inkscape.org/namespaces/inkscape"
   xmlns:sodipodi="http://sodipodi.sourceforge.net/DTD/sodipodi-0.dtd"
   xmlns="http://www.w3.org/2000/svg"
   xmlns:svg="http://www.w3.org/2000/svg">
  <defs
     id="defs1" />
  <sodipodi:namedview
     id="namedview1"
     pagecolor="#ffffff"
     bordercolor="#000000"
     borderopacity="0.25"
     inkscape:showpageshadow="2"
     inkscape:pageopacity="0.0"
     inkscape:pagecheckerboard="0"
     inkscape:deskcolor="#d1d1d1"
     inkscape:zoom="0.6171875"
     inkscape:cx="75.341772"
     inkscape:cy="527.3924"
     inkscape:window-width="1916"
     inkscape:window-height="1030"
     inkscape:window-x="0"
     inkscape:window-y="0"
     inkscape:window-maximized="0"
     inkscape:current-layer="svg1" />
  <title
     id="title1">Xbox Logo</title>
  <path
     fill="#107c10"
     d="M 387.25819,859.01713 C 320.98482,852.66776 253.89153,828.87014 196.2573,791.2639 c -48.29517,-31.49685 -59.19408,-44.46555 -59.19408,-70.31296 0,-51.92481 57.09429,-142.88571 154.78451,-246.55535 55.46446,-58.89411 132.73673,-127.88721 141.08589,-126.0274 16.25838,3.62964 146.14539,130.32697 194.78053,189.98101 76.89231,94.29057 112.22877,171.52284 94.27057,205.9494 -13.64864,26.16738 -98.36016,77.32227 -160.58394,96.9703 -51.29487,16.19838 -118.65814,23.0577 -174.14259,17.74823 z M 71.829736,666.96633 C 31.693746,605.39249 11.415776,544.77855 1.6367556,457.10732 -1.6029244,428.16021 -0.46303441,411.61187 8.9660256,352.17781 20.694846,278.18522 62.860636,192.49379 113.55557,139.79906 c 21.57784,-22.39776 23.49765,-22.9977 49.81502,-14.09859 31.89681,10.79892 65.9934,34.35656 118.88811,82.19178 l 30.8969,27.9372 -16.89831,20.69793 c -78.27217,96.09039 -160.8839,232.37676 -191.98079,316.66833 -16.898314,45.79542 -23.697634,91.79082 -16.398364,110.93891 4.89951,12.9387 0.39996,8.11919 -16.09839,-17.13829 z m 704.459554,10.46896 c 3.9696,-19.35807 -1.0499,-54.89451 -12.79872,-90.75093 C 738.04311,509.04213 652.96162,364.60657 574.83943,266.3964 l -24.59754,-30.91691 26.61734,-24.42756 c 34.73653,-31.89681 58.85412,-50.9949 84.89151,-67.22328 20.52795,-12.79872 49.87501,-24.12758 62.49375,-24.12758 7.76923,0 35.15649,28.49715 57.25428,59.49405 34.23657,47.9952 59.41405,106.28937 72.17278,166.8833 8.24917,39.19608 8.9391,122.9877 1.32987,162.0838 -6.29937,32.07679 -19.49805,73.65263 -32.29677,101.85981 -9.69903,21.12789 -33.59664,62.17378 -44.09559,75.53245 -5.39946,6.86931 -5.39946,6.85931 -2.39976,-7.95921 z M 394.35748,105.04253 C 358.30109,86.744355 302.68665,67.096325 271.96972,61.796855 c -10.75892,-1.84982 -29.12708,-2.89971 -40.79592,-2.29977 -25.35746,1.27987 -24.22757,-0.04 16.42836,-19.24808 33.79662,-15.9684 61.9938,-25.35746 100.28997,-33.3966599 43.04569,-9.04909 123.9876,-9.14908 166.35336,-0.21998 45.74543,9.6490399 99.63004,29.6970299 129.987,48.3951599 l 9.0391,5.53945 -20.69793,-1.0399 c -41.15588,-2.07979 -101.12989,14.54855 -165.52345,45.865425 -19.41806,9.45905 -36.29637,16.9983 -37.53625,16.79832 -1.22987,-0.23998 -17.05829,-7.94921 -35.19648,-17.14829 z"
     id="path1"
     style="stroke-width:9.999" />
</svg>
